{"glyphs":{"0":{"ha":1264,"x_min":35,"x_max":1225,"o":"m 347 1674 l 537 1694 l 547 1660 l 463 1598 l 410 1594 l 374 1215 q 471 1361 415 1322 q 602 1410 527 1400 q 754 1412 676 1421 q 872 1376 831 1402 q 940 1292 912 1350 q 976 1172 968 1234 l 985 1152 l 988 1057 l 1029 724 l 887 646 l 890 634 l 905 621 q 1073 616 1063 661 l 1133 606 q 1133 547 1168 564 l 407 527 l 165 496 q 256 585 126 524 l 413 598 l 389 624 l 380 649 l 399 680 l 403 692 l 332 726 l 361 1057 l 361 1142 q 332 1177 341 1147 l 374 1591 l 341 1606 l 330 1650 l 347 1674 m 751 1143 l 751 1055 l 755 1044 l 753 617 l 793 614 l 795 1074 l 803 1074 l 803 1138 l 751 1143 m 557 1148 l 539 1097 l 588 1086 l 597 1145 l 557 1148 m 481 1101 l 488 1147 l 473 1148 l 463 1101 l 481 1101 m 403 1113 l 407 1113 l 412 1132 l 376 1135 l 376 1115 l 403 1113 m 878 1133 l 868 1078 l 888 1078 l 906 1129 l 878 1133 m 909 1080 l 945 1078 l 962 1102 l 965 1124 l 926 1133 l 909 1080 m 369 1098 l 537 1080 l 644 1059 l 637 684 l 627 782 q 603 931 615 890 q 563 1003 591 972 q 507 1048 534 1034 q 448 1064 479 1063 q 376 1068 417 1066 l 369 1098 m 815 1057 l 962 1078 l 966 1041 q 917 1023 934 1031 q 886 995 899 1015 q 856 932 873 975 q 825 765 840 890 l 813 655 l 815 1057 m 359 1108 l 366 1059 q 432 1058 397 1060 q 497 1041 467 1057 q 554 995 527 1025 q 593 929 581 965 q 631 656 605 892 l 644 650 l 652 1067 l 537 1088 l 359 1108 m 806 1066 l 806 618 l 817 620 q 865 928 844 876 q 900 998 886 981 q 937 1023 913 1015 q 973 1032 960 1032 l 973 1085 l 806 1066 m 631 616 q 604 723 613 684 q 581 807 594 762 q 546 897 568 852 q 477 958 524 942 q 409 930 428 954 q 374 866 391 907 q 340 731 358 825 l 631 616 m 983 713 q 947 905 964 857 q 911 946 930 954 q 870 901 881 926 q 855 853 859 877 q 840 756 850 830 l 832 672 l 827 623 l 983 706 l 983 713 m 374 1160 l 369 1152 l 378 1139 l 438 1148 l 504 1154 l 594 1156 l 743 1149 l 842 1139 l 944 1138 l 977 1124 l 974 1158 q 885 1182 932 1175 q 768 1194 838 1189 q 630 1197 699 1198 q 504 1193 562 1195 q 374 1160 447 1190 m 388 1162 q 546 1183 459 1181 q 677 1185 633 1185 q 781 1183 722 1185 q 886 1173 840 1181 q 972 1151 932 1166 l 974 1132 l 932 1142 l 797 1152 l 698 1157 l 578 1160 l 490 1158 l 420 1152 l 378 1145 l 374 1151 l 388 1162 m 575 1374 q 692 1364 650 1366 q 775 1359 733 1362 q 826 1361 817 1356 q 829 1374 834 1366 q 807 1390 825 1382 q 753 1401 790 1397 q 685 1404 715 1404 q 630 1401 654 1404 q 575 1374 605 1397 m 821 1349 q 847 1304 828 1314 q 878 1292 865 1295 q 898 1299 890 1289 q 899 1321 906 1308 q 879 1343 892 1334 q 854 1354 865 1353 q 821 1349 844 1356 m 845 1352 q 876 1341 863 1351 q 896 1320 890 1332 q 898 1304 903 1308 q 887 1303 893 1301 q 870 1308 880 1305 q 849 1320 860 1310 q 835 1338 838 1330 q 845 1352 832 1347 m 386 1594 l 359 1295 l 395 1594 l 386 1594 m 267 553 q 172 527 193 538 q 160 509 151 516 q 186 505 169 503 q 222 519 203 507 q 267 553 240 530 m 1139 570 q 1108 594 1129 595 q 1071 583 1088 593 q 1023 568 1055 572 q 969 558 992 564 q 1008 556 946 552 q 1139 570 1071 561 m 274 454 q 245 368 288 382 l 274 353 q 358 483 302 468 q 513 425 498 483 q 443 266 541 309 l 358 266 l 288 338 q 92 266 274 252 l 77 411 l 35 411 l 35 483 q 274 454 274 497 m 147 396 l 203 396 l 203 425 l 147 425 l 147 396 m 147 309 l 217 324 l 203 353 l 147 353 l 147 309 m 387 309 l 443 324 l 429 425 l 358 411 q 387 309 343 338 m 527 483 q 724 454 711 497 q 696 368 739 382 q 739 324 739 382 l 795 483 l 894 483 l 949 309 l 949 266 l 808 309 l 780 266 l 711 294 q 527 266 654 252 l 527 483 m 597 396 l 654 396 l 654 425 l 597 425 l 597 396 m 597 309 l 668 324 l 654 353 l 597 353 l 597 309 m 823 353 l 865 353 l 851 425 l 823 396 l 823 353 m 208 231 l 406 231 l 406 159 l 307 144 l 378 144 l 378 102 l 322 102 l 294 15 l 237 28 l 208 159 l 208 231 m 646 174 q 575 15 673 58 q 420 87 435 15 q 490 231 392 159 q 646 174 631 231 m 518 58 l 575 73 l 562 174 l 490 159 q 518 58 477 87 m 661 233 q 774 176 718 262 q 803 233 774 233 l 1027 233 l 1027 161 l 971 161 l 971 90 l 1098 90 q 1070 233 1000 191 l 1211 233 l 1211 176 l 1141 146 q 1141 16 1225 60 l 916 16 l 901 146 l 844 161 l 831 16 l 787 16 l 718 90 l 718 16 l 661 16 l 661 233 z "},"1":{"ha":1264,"x_min":35,"x_max":1225,"o":"m 347 1674 l 537 1694 l 547 1660 l 463 1598 l 410 1594 l 374 1215 q 471 1361 415 1322 q 602 1410 527 1400 q 754 1412 676 1421 q 872 1376 831 1402 q 940 1292 912 1350 q 976 1172 968 1234 l 985 1152 l 988 1057 l 1029 724 l 887 646 l 890 634 l 905 621 q 1073 616 1063 661 l 1133 606 q 1133 547 1168 564 l 407 527 l 165 496 q 256 585 126 524 l 413 598 l 389 624 l 380 649 l 399 680 l 403 692 l 332 726 l 361 1057 l 361 1142 q 332 1177 341 1147 l 374 1591 l 341 1606 l 330 1650 l 347 1674 m 751 1143 l 751 1055 l 755 1044 l 753 617 l 793 614 l 795 1074 l 803 1074 l 803 1138 l 751 1143 m 557 1148 l 539 1097 l 588 1086 l 597 1145 l 557 1148 m 481 1101 l 488 1147 l 473 1148 l 463 1101 l 481 1101 m 403 1113 l 407 1113 l 412 1132 l 376 1135 l 376 1115 l 403 1113 m 878 1133 l 868 1078 l 888 1078 l 906 1129 l 878 1133 m 909 1080 l 945 1078 l 962 1102 l 965 1124 l 926 1133 l 909 1080 m 369 1098 l 537 1080 l 644 1059 l 637 684 l 627 782 q 603 931 615 890 q 563 1003 591 972 q 507 1048 534 1034 q 448 1064 479 1063 q 376 1068 417 1066 l 369 1098 m 815 1057 l 962 1078 l 966 1041 q 917 1023 934 1031 q 886 995 899 1015 q 856 932 873 975 q 825 765 840 890 l 813 655 l 815 1057 m 359 1108 l 366 1059 q 432 1058 397 1060 q 497 1041 467 1057 q 554 995 527 1025 q 593 929 581 965 q 631 656 605 892 l 644 650 l 652 1067 l 537 1088 l 359 1108 m 806 1066 l 806 618 l 817 620 q 865 928 844 876 q 900 998 886 981 q 937 1023 913 1015 q 973 1032 960 1032 l 973 1085 l 806 1066 m 631 616 q 604 723 613 684 q 581 807 594 762 q 546 897 568 852 q 477 958 524 942 q 409 930 428 954 q 374 866 391 907 q 340 731 358 825 l 631 616 m 983 713 q 947 905 964 857 q 911 946 930 954 q 870 901 881 926 q 855 853 859 877 q 840 756 850 830 l 832 672 l 827 623 l 983 706 l 983 713 m 374 1160 l 369 1152 l 378 1139 l 438 1148 l 504 1154 l 594 1156 l 743 1149 l 842 1139 l 944 1138 l 977 1124 l 974 1158 q 885 1182 932 1175 q 768 1194 838 1189 q 630 1197 699 1198 q 504 1193 562 1195 q 374 1160 447 1190 m 388 1162 q 546 1183 459 1181 q 677 1185 633 1185 q 781 1183 722 1185 q 886 1173 840 1181 q 972 1151 932 1166 l 974 1132 l 932 1142 l 797 1152 l 698 1157 l 578 1160 l 490 1158 l 420 1152 l 378 1145 l 374 1151 l 388 1162 m 575 1374 q 692 1364 650 1366 q 775 1359 733 1362 q 826 1361 817 1356 q 829 1374 834 1366 q 807 1390 825 1382 q 753 1401 790 1397 q 685 1404 715 1404 q 630 1401 654 1404 q 575 1374 605 1397 m 821 1349 q 847 1304 828 1314 q 878 1292 865 1295 q 898 1299 890 1289 q 899 1321 906 1308 q 879 1343 892 1334 q 854 1354 865 1353 q 821 1349 844 1356 m 845 1352 q 876 1341 863 1351 q 896 1320 890 1332 q 898 1304 903 1308 q 887 1303 893 1301 q 870 1308 880 1305 q 849 1320 860 1310 q 835 1338 838 1330 q 845 1352 832 1347 m 386 1594 l 359 1295 l 395 1594 l 386 1594 m 267 553 q 172 527 193 538 q 160 509 151 516 q 186 505 169 503 q 222 519 203 507 q 267 553 240 530 m 1139 570 q 1108 594 1129 595 q 1071 583 1088 593 q 1023 568 1055 572 q 969 558 992 564 q 1008 556 946 552 q 1139 570 1071 561 m 274 454 q 245 368 288 382 l 274 353 q 358 483 302 468 q 513 425 498 483 q 443 266 541 309 l 358 266 l 288 338 q 92 266 274 252 l 77 411 l 35 411 l 35 483 q 274 454 274 497 m 147 396 l 203 396 l 203 425 l 147 425 l 147 396 m 147 309 l 217 324 l 203 353 l 147 353 l 147 309 m 387 309 l 443 324 l 429 425 l 358 411 q 387 309 343 338 m 527 483 q 724 454 711 497 q 696 368 739 382 q 739 324 739 382 l 795 483 l 894 483 l 949 309 l 949 266 l 808 309 l 780 266 l 711 294 q 527 266 654 252 l 527 483 m 597 396 l 654 396 l 654 425 l 597 425 l 597 396 m 597 309 l 668 324 l 654 353 l 597 353 l 597 309 m 823 353 l 865 353 l 851 425 l 823 396 l 823 353 m 208 231 l 406 231 l 406 159 l 307 144 l 378 144 l 378 102 l 322 102 l 294 15 l 237 28 l 208 159 l 208 231 m 646 174 q 575 15 673 58 q 420 87 435 15 q 490 231 392 159 q 646 174 631 231 m 518 58 l 575 73 l 562 174 l 490 159 q 518 58 477 87 m 661 233 q 774 176 718 262 q 803 233 774 233 l 1027 233 l 1027 161 l 971 161 l 971 90 l 1098 90 q 1070 233 1000 191 l 1211 233 l 1211 176 l 1141 146 q 1141 16 1225 60 l 916 16 l 901 146 l 844 161 l 831 16 l 787 16 l 718 90 l 718 16 l 661 16 l 661 233 z "},"2":{"ha":0,"x_min":-136,"x_max":4073,"o":"m -136 1194 l -136 1329 l 928 1329 q 953 1379 1028 1325 q 849 1564 830 1480 q 964 1648 867 1648 l 1648 1648 l 1648 1514 l 1486 1514 l 1486 1194 l 1319 1194 l 1319 1514 l 1120 1514 q 1092 1469 1028 1520 q 1205 1294 1207 1379 q 1092 1194 1202 1210 l -136 1194 m 1585 1194 l 1754 1648 l 2008 1648 l 2179 1194 l 1985 1194 l 1953 1276 l 1801 1276 l 1769 1194 l 1585 1194 m 1883 1528 l 1809 1347 l 1950 1347 l 1883 1528 m 2426 1538 l 2426 1455 l 2555 1455 q 2577 1461 2565 1455 q 2590 1495 2589 1468 q 2576 1530 2589 1522 q 2555 1538 2563 1538 l 2426 1538 m 2241 1194 l 2241 1648 l 2574 1648 q 2675 1619 2636 1643 q 2733 1556 2715 1596 q 2735 1462 2748 1495 q 2690 1407 2722 1430 q 2599 1373 2658 1385 l 2637 1329 l 4073 1329 l 4073 1194 l 2589 1194 l 2426 1343 l 2426 1194 l 2241 1194 z "},"3":{"ha":0,"x_min":-136,"x_max":2035,"o":"m -136 1194 l -136 1329 l 2035 1329 l 2035 1194 l -136 1194 z "},"4":{"ha":0,"x_min":-3000,"x_max":3594,"o":"m -3000 1194 l -3000 1329 l -1937 1329 q -1912 1379 -1836 1325 q -2016 1564 -2035 1480 q -1900 1648 -1997 1648 l -1217 1648 l -1217 1514 l -1379 1514 l -1379 1194 l -1546 1194 l -1546 1514 l -1745 1514 q -1773 1469 -1836 1520 q -1660 1294 -1657 1379 q -1773 1194 -1662 1210 l -3000 1194 m 778 1194 l 947 1648 l 1201 1648 l 1372 1194 l 1178 1194 l 1146 1276 l 994 1276 l 962 1194 l 778 1194 m 1072 1528 l 998 1347 l 1139 1347 l 1072 1528 m 1594 1538 l 1594 1455 l 1724 1455 q 1745 1461 1733 1455 q 1758 1495 1757 1468 q 1745 1530 1757 1522 q 1723 1538 1732 1538 l 1594 1538 m 275 1649 l 365 1453 l 412 1649 l 580 1649 l 651 1453 l 725 1649 l 905 1649 l 736 1194 l 570 1194 l 509 1385 l 450 1194 l 284 1194 l 79 1649 l 275 1649 m -1280 1194 l -1111 1648 l -857 1648 l -686 1194 l -880 1194 l -911 1276 l -1063 1276 l -1096 1194 l -1280 1194 m -982 1528 l -1056 1347 l -915 1347 l -982 1528 m -624 1194 l -624 1648 l -291 1648 q -189 1619 -229 1643 q -132 1556 -150 1596 q -130 1462 -117 1495 q -174 1407 -142 1430 q -265 1373 -206 1385 l -227 1329 l 184 1329 l 247 1194 l -276 1194 l -438 1343 l -438 1194 l -624 1194 m -439 1538 l -439 1455 l -309 1455 q -288 1461 -300 1455 q -275 1495 -276 1468 q -289 1530 -276 1522 q -310 1538 -301 1538 l -439 1538 m 2383 1650 l 2382 1514 l 2260 1514 q 2233 1469 2169 1520 q 2345 1295 2347 1379 q 2233 1194 2343 1211 l 1756 1194 l 1594 1345 l 1594 1194 l 1409 1194 l 1409 1650 l 1744 1650 q 1844 1621 1805 1645 q 1902 1556 1884 1596 q 1903 1462 1916 1496 q 1858 1407 1890 1429 q 1767 1373 1826 1385 l 1806 1329 l 2068 1329 q 2094 1379 2169 1324 q 1989 1566 1970 1481 q 2105 1650 2007 1650 l 2383 1650 m 2304 1194 q 2376 1329 2382 1200 l 3594 1329 l 3594 1194 l 2304 1194 z "},"5":{"ha":0,"x_min":-2035,"x_max":136,"o":"m -2035 1194 l -2035 1329 l 136 1329 l 136 1194 l -2035 1194 z "},"6":{"ha":1264,"x_min":35,"x_max":1225,"o":"m 347 1674 l 537 1694 l 547 1660 l 463 1598 l 410 1594 l 374 1215 q 471 1361 415 1322 q 602 1410 527 1400 q 754 1412 676 1421 q 872 1376 831 1402 q 940 1292 912 1350 q 976 1172 968 1234 l 985 1152 l 988 1057 l 1029 724 l 887 646 l 890 634 l 905 621 q 1073 616 1063 661 l 1133 606 q 1133 547 1168 564 l 407 527 l 165 496 q 256 585 126 524 l 413 598 l 389 624 l 380 649 l 399 680 l 403 692 l 332 726 l 361 1057 l 361 1142 q 332 1177 341 1147 l 374 1591 l 341 1606 l 330 1650 l 347 1674 m 751 1143 l 751 1055 l 755 1044 l 753 617 l 793 614 l 795 1074 l 803 1074 l 803 1138 l 751 1143 m 557 1148 l 539 1097 l 588 1086 l 597 1145 l 557 1148 m 481 1101 l 488 1147 l 473 1148 l 463 1101 l 481 1101 m 403 1113 l 407 1113 l 412 1132 l 376 1135 l 376 1115 l 403 1113 m 878 1133 l 868 1078 l 888 1078 l 906 1129 l 878 1133 m 909 1080 l 945 1078 l 962 1102 l 965 1124 l 926 1133 l 909 1080 m 369 1098 l 537 1080 l 644 1059 l 637 684 l 627 782 q 603 931 615 890 q 563 1003 591 972 q 507 1048 534 1034 q 448 1064 479 1063 q 376 1068 417 1066 l 369 1098 m 815 1057 l 962 1078 l 966 1041 q 917 1023 934 1031 q 886 995 899 1015 q 856 932 873 975 q 825 765 840 890 l 813 655 l 815 1057 m 359 1108 l 366 1059 q 432 1058 397 1060 q 497 1041 467 1057 q 554 995 527 1025 q 593 929 581 965 q 631 656 605 892 l 644 650 l 652 1067 l 537 1088 l 359 1108 m 806 1066 l 806 618 l 817 620 q 865 928 844 876 q 900 998 886 981 q 937 1023 913 1015 q 973 1032 960 1032 l 973 1085 l 806 1066 m 631 616 q 604 723 613 684 q 581 807 594 762 q 546 897 568 852 q 477 958 524 942 q 409 930 428 954 q 374 866 391 907 q 340 731 358 825 l 631 616 m 983 713 q 947 905 964 857 q 911 946 930 954 q 870 901 881 926 q 855 853 859 877 q 840 756 850 830 l 832 672 l 827 623 l 983 706 l 983 713 m 374 1160 l 369 1152 l 378 1139 l 438 1148 l 504 1154 l 594 1156 l 743 1149 l 842 1139 l 944 1138 l 977 1124 l 974 1158 q 885 1182 932 1175 q 768 1194 838 1189 q 630 1197 699 1198 q 504 1193 562 1195 q 374 1160 447 1190 m 388 1162 q 546 1183 459 1181 q 677 1185 633 1185 q 781 1183 722 1185 q 886 1173 840 1181 q 972 1151 932 1166 l 974 1132 l 932 1142 l 797 1152 l 698 1157 l 578 1160 l 490 1158 l 420 1152 l 378 1145 l 374 1151 l 388 1162 m 575 1374 q 692 1364 650 1366 q 775 1359 733 1362 q 826 1361 817 1356 q 829 1374 834 1366 q 807 1390 825 1382 q 753 1401 790 1397 q 685 1404 715 1404 q 630 1401 654 1404 q 575 1374 605 1397 m 821 1349 q 847 1304 828 1314 q 878 1292 865 1295 q 898 1299 890 1289 q 899 1321 906 1308 q 879 1343 892 1334 q 854 1354 865 1353 q 821 1349 844 1356 m 845 1352 q 876 1341 863 1351 q 896 1320 890 1332 q 898 1304 903 1308 q 887 1303 893 1301 q 870 1308 880 1305 q 849 1320 860 1310 q 835 1338 838 1330 q 845 1352 832 1347 m 386 1594 l 359 1295 l 395 1594 l 386 1594 m 267 553 q 172 527 193 538 q 160 509 151 516 q 186 505 169 503 q 222 519 203 507 q 267 553 240 530 m 1139 570 q 1108 594 1129 595 q 1071 583 1088 593 q 1023 568 1055 572 q 969 558 992 564 q 1008 556 946 552 q 1139 570 1071 561 m 274 454 q 245 368 288 382 l 274 353 q 358 483 302 468 q 513 425 498 483 q 443 266 541 309 l 358 266 l 288 338 q 92 266 274 252 l 77 411 l 35 411 l 35 483 q 274 454 274 497 m 147 396 l 203 396 l 203 425 l 147 425 l 147 396 m 147 309 l 217 324 l 203 353 l 147 353 l 147 309 m 387 309 l 443 324 l 429 425 l 358 411 q 387 309 343 338 m 527 483 q 724 454 711 497 q 696 368 739 382 q 739 324 739 382 l 795 483 l 894 483 l 949 309 l 949 266 l 808 309 l 780 266 l 711 294 q 527 266 654 252 l 527 483 m 597 396 l 654 396 l 654 425 l 597 425 l 597 396 m 597 309 l 668 324 l 654 353 l 597 353 l 597 309 m 823 353 l 865 353 l 851 425 l 823 396 l 823 353 m 208 231 l 406 231 l 406 159 l 307 144 l 378 144 l 378 102 l 322 102 l 294 15 l 237 28 l 208 159 l 208 231 m 646 174 q 575 15 673 58 q 420 87 435 15 q 490 231 392 159 q 646 174 631 231 m 518 58 l 575 73 l 562 174 l 490 159 q 518 58 477 87 m 661 233 q 774 176 718 262 q 803 233 774 233 l 1027 233 l 1027 161 l 971 161 l 971 90 l 1098 90 q 1070 233 1000 191 l 1211 233 l 1211 176 l 1141 146 q 1141 16 1225 60 l 916 16 l 901 146 l 844 161 l 831 16 l 787 16 l 718 90 l 718 16 l 661 16 l 661 233 z "},"7":{"ha":1264,"x_min":35,"x_max":1225,"o":"m 347 1674 l 537 1694 l 547 1660 l 463 1598 l 410 1594 l 374 1215 q 471 1361 415 1322 q 602 1410 527 1400 q 754 1412 676 1421 q 872 1376 831 1402 q 940 1292 912 1350 q 976 1172 968 1234 l 985 1152 l 988 1057 l 1029 724 l 887 646 l 890 634 l 905 621 q 1073 616 1063 661 l 1133 606 q 1133 547 1168 564 l 407 527 l 165 496 q 256 585 126 524 l 413 598 l 389 624 l 380 649 l 399 680 l 403 692 l 332 726 l 361 1057 l 361 1142 q 332 1177 341 1147 l 374 1591 l 341 1606 l 330 1650 l 347 1674 m 751 1143 l 751 1055 l 755 1044 l 753 617 l 793 614 l 795 1074 l 803 1074 l 803 1138 l 751 1143 m 557 1148 l 539 1097 l 588 1086 l 597 1145 l 557 1148 m 481 1101 l 488 1147 l 473 1148 l 463 1101 l 481 1101 m 403 1113 l 407 1113 l 412 1132 l 376 1135 l 376 1115 l 403 1113 m 878 1133 l 868 1078 l 888 1078 l 906 1129 l 878 1133 m 909 1080 l 945 1078 l 962 1102 l 965 1124 l 926 1133 l 909 1080 m 369 1098 l 537 1080 l 644 1059 l 637 684 l 627 782 q 603 931 615 890 q 563 1003 591 972 q 507 1048 534 1034 q 448 1064 479 1063 q 376 1068 417 1066 l 369 1098 m 815 1057 l 962 1078 l 966 1041 q 917 1023 934 1031 q 886 995 899 1015 q 856 932 873 975 q 825 765 840 890 l 813 655 l 815 1057 m 359 1108 l 366 1059 q 432 1058 397 1060 q 497 1041 467 1057 q 554 995 527 1025 q 593 929 581 965 q 631 656 605 892 l 644 650 l 652 1067 l 537 1088 l 359 1108 m 806 1066 l 806 618 l 817 620 q 865 928 844 876 q 900 998 886 981 q 937 1023 913 1015 q 973 1032 960 1032 l 973 1085 l 806 1066 m 631 616 q 604 723 613 684 q 581 807 594 762 q 546 897 568 852 q 477 958 524 942 q 409 930 428 954 q 374 866 391 907 q 340 731 358 825 l 631 616 m 983 713 q 947 905 964 857 q 911 946 930 954 q 870 901 881 926 q 855 853 859 877 q 840 756 850 830 l 832 672 l 827 623 l 983 706 l 983 713 m 374 1160 l 369 1152 l 378 1139 l 438 1148 l 504 1154 l 594 1156 l 743 1149 l 842 1139 l 944 1138 l 977 1124 l 974 1158 q 885 1182 932 1175 q 768 1194 838 1189 q 630 1197 699 1198 q 504 1193 562 1195 q 374 1160 447 1190 m 388 1162 q 546 1183 459 1181 q 677 1185 633 1185 q 781 1183 722 1185 q 886 1173 840 1181 q 972 1151 932 1166 l 974 1132 l 932 1142 l 797 1152 l 698 1157 l 578 1160 l 490 1158 l 420 1152 l 378 1145 l 374 1151 l 388 1162 m 575 1374 q 692 1364 650 1366 q 775 1359 733 1362 q 826 1361 817 1356 q 829 1374 834 1366 q 807 1390 825 1382 q 753 1401 790 1397 q 685 1404 715 1404 q 630 1401 654 1404 q 575 1374 605 1397 m 821 1349 q 847 1304 828 1314 q 878 1292 865 1295 q 898 1299 890 1289 q 899 1321 906 1308 q 879 1343 892 1334 q 854 1354 865 1353 q 821 1349 844 1356 m 845 1352 q 876 1341 863 1351 q 896 1320 890 1332 q 898 1304 903 1308 q 887 1303 893 1301 q 870 1308 880 1305 q 849 1320 860 1310 q 835 1338 838 1330 q 845 1352 832 1347 m 386 1594 l 359 1295 l 395 1594 l 386 1594 m 267 553 q 172 527 193 538 q 160 509 151 516 q 186 505 169 503 q 222 519 203 507 q 267 553 240 530 m 1139 570 q 1108 594 1129 595 q 1071 583 1088 593 q 1023 568 1055 572 q 969 558 992 564 q 1008 556 946 552 q 1139 570 1071 561 m 274 454 q 245 368 288 382 l 274 353 q 358 483 302 468 q 513 425 498 483 q 443 266 541 309 l 358 266 l 288 338 q 92 266 274 252 l 77 411 l 35 411 l 35 483 q 274 454 274 497 m 147 396 l 203 396 l 203 425 l 147 425 l 147 396 m 147 309 l 217 324 l 203 353 l 147 353 l 147 309 m 387 309 l 443 324 l 429 425 l 358 411 q 387 309 343 338 m 527 483 q 724 454 711 497 q 696 368 739 382 q 739 324 739 382 l 795 483 l 894 483 l 949 309 l 949 266 l 808 309 l 780 266 l 711 294 q 527 266 654 252 l 527 483 m 597 396 l 654 396 l 654 425 l 597 425 l 597 396 m 597 309 l 668 324 l 654 353 l 597 353 l 597 309 m 823 353 l 865 353 l 851 425 l 823 396 l 823 353 m 208 231 l 406 231 l 406 159 l 307 144 l 378 144 l 378 102 l 322 102 l 294 15 l 237 28 l 208 159 l 208 231 m 646 174 q 575 15 673 58 q 420 87 435 15 q 490 231 392 159 q 646 174 631 231 m 518 58 l 575 73 l 562 174 l 490 159 q 518 58 477 87 m 661 233 q 774 176 718 262 q 803 233 774 233 l 1027 233 l 1027 161 l 971 161 l 971 90 l 1098 90 q 1070 233 1000 191 l 1211 233 l 1211 176 l 1141 146 q 1141 16 1225 60 l 916 16 l 901 146 l 844 161 l 831 16 l 787 16 l 718 90 l 718 16 l 661 16 l 661 233 z "},"8":{"ha":1264,"x_min":35,"x_max":1225,"o":"m 347 1674 l 537 1694 l 547 1660 l 463 1598 l 410 1594 l 374 1215 q 471 1361 415 1322 q 602 1410 527 1400 q 754 1412 676 1421 q 872 1376 831 1402 q 940 1292 912 1350 q 976 1172 968 1234 l 985 1152 l 988 1057 l 1029 724 l 887 646 l 890 634 l 905 621 q 1073 616 1063 661 l 1133 606 q 1133 547 1168 564 l 407 527 l 165 496 q 256 585 126 524 l 413 598 l 389 624 l 380 649 l 399 680 l 403 692 l 332 726 l 361 1057 l 361 1142 q 332 1177 341 1147 l 374 1591 l 341 1606 l 330 1650 l 347 1674 m 751 1143 l 751 1055 l 755 1044 l 753 617 l 793 614 l 795 1074 l 803 1074 l 803 1138 l 751 1143 m 557 1148 l 539 1097 l 588 1086 l 597 1145 l 557 1148 m 481 1101 l 488 1147 l 473 1148 l 463 1101 l 481 1101 m 403 1113 l 407 1113 l 412 1132 l 376 1135 l 376 1115 l 403 1113 m 878 1133 l 868 1078 l 888 1078 l 906 1129 l 878 1133 m 909 1080 l 945 1078 l 962 1102 l 965 1124 l 926 1133 l 909 1080 m 369 1098 l 537 1080 l 644 1059 l 637 684 l 627 782 q 603 931 615 890 q 563 1003 591 972 q 507 1048 534 1034 q 448 1064 479 1063 q 376 1068 417 1066 l 369 1098 m 815 1057 l 962 1078 l 966 1041 q 917 1023 934 1031 q 886 995 899 1015 q 856 932 873 975 q 825 765 840 890 l 813 655 l 815 1057 m 359 1108 l 366 1059 q 432 1058 397 1060 q 497 1041 467 1057 q 554 995 527 1025 q 593 929 581 965 q 631 656 605 892 l 644 650 l 652 1067 l 537 1088 l 359 1108 m 806 1066 l 806 618 l 817 620 q 865 928 844 876 q 900 998 886 981 q 937 1023 913 1015 q 973 1032 960 1032 l 973 1085 l 806 1066 m 631 616 q 604 723 613 684 q 581 807 594 762 q 546 897 568 852 q 477 958 524 942 q 409 930 428 954 q 374 866 391 907 q 340 731 358 825 l 631 616 m 983 713 q 947 905 964 857 q 911 946 930 954 q 870 901 881 926 q 855 853 859 877 q 840 756 850 830 l 832 672 l 827 623 l 983 706 l 983 713 m 374 1160 l 369 1152 l 378 1139 l 438 1148 l 504 1154 l 594 1156 l 743 1149 l 842 1139 l 944 1138 l 977 1124 l 974 1158 q 885 1182 932 1175 q 768 1194 838 1189 q 630 1197 699 1198 q 504 1193 562 1195 q 374 1160 447 1190 m 388 1162 q 546 1183 459 1181 q 677 1185 633 1185 q 781 1183 722 1185 q 886 1173 840 1181 q 972 1151 932 1166 l 974 1132 l 932 1142 l 797 1152 l 698 1157 l 578 1160 l 490 1158 l 420 1152 l 378 1145 l 374 1151 l 388 1162 m 575 1374 q 692 1364 650 1366 q 775 1359 733 1362 q 826 1361 817 1356 q 829 1374 834 1366 q 807 1390 825 1382 q 753 1401 790 1397 q 685 1404 715 1404 q 630 1401 654 1404 q 575 1374 605 1397 m 821 1349 q 847 1304 828 1314 q 878 1292 865 1295 q 898 1299 890 1289 q 899 1321 906 1308 q 879 1343 892 1334 q 854 1354 865 1353 q 821 1349 844 1356 m 845 1352 q 876 1341 863 1351 q 896 1320 890 1332 q 898 1304 903 1308 q 887 1303 893 1301 q 870 1308 880 1305 q 849 1320 860 1310 q 835 1338 838 1330 q 845 1352 832 1347 m 386 1594 l 359 1295 l 395 1594 l 386 1594 m 267 553 q 172 527 193 538 q 160 509 151 516 q 186 505 169 503 q 222 519 203 507 q 267 553 240 530 m 1139 570 q 1108 594 1129 595 q 1071 583 1088 593 q 1023 568 1055 572 q 969 558 992 564 q 1008 556 946 552 q 1139 570 1071 561 m 274 454 q 245 368 288 382 l 274 353 q 358 483 302 468 q 513 425 498 483 q 443 266 541 309 l 358 266 l 288 338 q 92 266 274 252 l 77 411 l 35 411 l 35 483 q 274 454 274 497 m 147 396 l 203 396 l 203 425 l 147 425 l 147 396 m 147 309 l 217 324 l 203 353 l 147 353 l 147 309 m 387 309 l 443 324 l 429 425 l 358 411 q 387 309 343 338 m 527 483 q 724 454 711 497 q 696 368 739 382 q 739 324 739 382 l 795 483 l 894 483 l 949 309 l 949 266 l 808 309 l 780 266 l 711 294 q 527 266 654 252 l 527 483 m 597 396 l 654 396 l 654 425 l 597 425 l 597 396 m 597 309 l 668 324 l 654 353 l 597 353 l 597 309 m 823 353 l 865 353 l 851 425 l 823 396 l 823 353 m 208 231 l 406 231 l 406 159 l 307 144 l 378 144 l 378 102 l 322 102 l 294 15 l 237 28 l 208 159 l 208 231 m 646 174 q 575 15 673 58 q 420 87 435 15 q 490 231 392 159 q 646 174 631 231 m 518 58 l 575 73 l 562 174 l 490 159 q 518 58 477 87 m 661 233 q 774 176 718 262 q 803 233 774 233 l 1027 233 l 1027 161 l 971 161 l 971 90 l 1098 90 q 1070 233 1000 191 l 1211 233 l 1211 176 l 1141 146 q 1141 16 1225 60 l 916 16 l 901 146 l 844 161 l 831 16 l 787 16 l 718 90 l 718 16 l 661 16 l 661 233 z "},"9":{"ha":1264,"x_min":35,"x_max":1225,"o":"m 347 1674 l 537 1694 l 547 1660 l 463 1598 l 410 1594 l 374 1215 q 471 1361 415 1322 q 602 1410 527 1400 q 754 1412 676 1421 q 872 1376 831 1402 q 940 1292 912 1350 q 976 1172 968 1234 l 985 1152 l 988 1057 l 1029 724 l 887 646 l 890 634 l 905 621 q 1073 616 1063 661 l 1133 606 q 1133 547 1168 564 l 407 527 l 165 496 q 256 585 126 524 l 413 598 l 389 624 l 380 649 l 399 680 l 403 692 l 332 726 l 361 1057 l 361 1142 q 332 1177 341 1147 l 374 1591 l 341 1606 l 330 1650 l 347 1674 m 751 1143 l 751 1055 l 755 1044 l 753 617 l 793 614 l 795 1074 l 803 1074 l 803 1138 l 751 1143 m 557 1148 l 539 1097 l 588 1086 l 597 1145 l 557 1148 m 481 1101 l 488 1147 l 473 1148 l 463 1101 l 481 1101 m 403 1113 l 407 1113 l 412 1132 l 376 1135 l 376 1115 l 403 1113 m 878 1133 l 868 1078 l 888 1078 l 906 1129 l 878 1133 m 909 1080 l 945 1078 l 962 1102 l 965 1124 l 926 1133 l 909 1080 m 369 1098 l 537 1080 l 644 1059 l 637 684 l 627 782 q 603 931 615 890 q 563 1003 591 972 q 507 1048 534 1034 q 448 1064 479 1063 q 376 1068 417 1066 l 369 1098 m 815 1057 l 962 1078 l 966 1041 q 917 1023 934 1031 q 886 995 899 1015 q 856 932 873 975 q 825 765 840 890 l 813 655 l 815 1057 m 359 1108 l 366 1059 q 432 1058 397 1060 q 497 1041 467 1057 q 554 995 527 1025 q 593 929 581 965 q 631 656 605 892 l 644 650 l 652 1067 l 537 1088 l 359 1108 m 806 1066 l 806 618 l 817 620 q 865 928 844 876 q 900 998 886 981 q 937 1023 913 1015 q 973 1032 960 1032 l 973 1085 l 806 1066 m 631 616 q 604 723 613 684 q 581 807 594 762 q 546 897 568 852 q 477 958 524 942 q 409 930 428 954 q 374 866 391 907 q 340 731 358 825 l 631 616 m 983 713 q 947 905 964 857 q 911 946 930 954 q 870 901 881 926 q 855 853 859 877 q 840 756 850 830 l 832 672 l 827 623 l 983 706 l 983 713 m 374 1160 l 369 1152 l 378 1139 l 438 1148 l 504 1154 l 594 1156 l 743 1149 l 842 1139 l 944 1138 l 977 1124 l 974 1158 q 885 1182 932 1175 q 768 1194 838 1189 q 630 1197 699 1198 q 504 1193 562 1195 q 374 1160 447 1190 m 388 1162 q 546 1183 459 1181 q 677 1185 633 1185 q 781 1183 722 1185 q 886 1173 840 1181 q 972 1151 932 1166 l 974 1132 l 932 1142 l 797 1152 l 698 1157 l 578 1160 l 490 1158 l 420 1152 l 378 1145 l 374 1151 l 388 1162 m 575 1374 q 692 1364 650 1366 q 775 1359 733 1362 q 826 1361 817 1356 q 829 1374 834 1366 q 807 1390 825 1382 q 753 1401 790 1397 q 685 1404 715 1404 q 630 1401 654 1404 q 575 1374 605 1397 m 821 1349 q 847 1304 828 1314 q 878 1292 865 1295 q 898 1299 890 1289 q 899 1321 906 1308 q 879 1343 892 1334 q 854 1354 865 1353 q 821 1349 844 1356 m 845 1352 q 876 1341 863 1351 q 896 1320 890 1332 q 898 1304 903 1308 q 887 1303 893 1301 q 870 1308 880 1305 q 849 1320 860 1310 q 835 1338 838 1330 q 845 1352 832 1347 m 386 1594 l 359 1295 l 395 1594 l 386 1594 m 267 553 q 172 527 193 538 q 160 509 151 516 q 186 505 169 503 q 222 519 203 507 q 267 553 240 530 m 1139 570 q 1108 594 1129 595 q 1071 583 1088 593 q 1023 568 1055 572 q 969 558 992 564 q 1008 556 946 552 q 1139 570 1071 561 m 274 454 q 245 368 288 382 l 274 353 q 358 483 302 468 q 513 425 498 483 q 443 266 541 309 l 358 266 l 288 338 q 92 266 274 252 l 77 411 l 35 411 l 35 483 q 274 454 274 497 m 147 396 l 203 396 l 203 425 l 147 425 l 147 396 m 147 309 l 217 324 l 203 353 l 147 353 l 147 309 m 387 309 l 443 324 l 429 425 l 358 411 q 387 309 343 338 m 527 483 q 724 454 711 497 q 696 368 739 382 q 739 324 739 382 l 795 483 l 894 483 l 949 309 l 949 266 l 808 309 l 780 266 l 711 294 q 527 266 654 252 l 527 483 m 597 396 l 654 396 l 654 425 l 597 425 l 597 396 m 597 309 l 668 324 l 654 353 l 597 353 l 597 309 m 823 353 l 865 353 l 851 425 l 823 396 l 823 353 m 208 231 l 406 231 l 406 159 l 307 144 l 378 144 l 378 102 l 322 102 l 294 15 l 237 28 l 208 159 l 208 231 m 646 174 q 575 15 673 58 q 420 87 435 15 q 490 231 392 159 q 646 174 631 231 m 518 58 l 575 73 l 562 174 l 490 159 q 518 58 477 87 m 661 233 q 774 176 718 262 q 803 233 774 233 l 1027 233 l 1027 161 l 971 161 l 971 90 l 1098 90 q 1070 233 1000 191 l 1211 233 l 1211 176 l 1141 146 q 1141 16 1225 60 l 916 16 l 901 146 l 844 161 l 831 16 l 787 16 l 718 90 l 718 16 l 661 16 l 661 233 z "},"`":{"ha":1105,"x_min":-164,"x_max":1155,"o":"m 1155 979 l 810 0 l 290 0 l 39 688 l -164 688 l -164 979 l 334 979 l 559 227 l 781 979 l 1155 979 z "},"-":{"ha":514,"x_min":62,"x_max":452,"o":"m 62 256 l 62 500 l 452 500 l 452 256 l 62 256 z "},"=":{"ha":987,"x_min":-68,"x_max":1055,"o":"m -68 0 l -68 292 l 1055 292 l 1055 0 l -68 0 z "},"q":{"ha":1112,"x_min":7,"x_max":1112,"o":"m 1112 292 l 1112 0 l 529 -17 q 308 19 404 -14 q 144 116 212 52 q 41 275 76 181 q 7 489 7 368 q 43 701 7 612 q 148 854 79 789 q 315 952 217 920 q 564 993 412 985 q 837 941 719 985 q 1029 798 955 898 q 1096 499 1104 697 q 1032 343 1080 410 q 1083 292 984 277 l 1112 292 m 357 476 q 400 312 357 382 q 567 242 442 242 l 567 290 q 768 340 754 271 q 787 476 783 409 q 741 639 783 569 q 567 709 700 709 q 357 476 357 709 z "},"w":{"ha":1221,"x_min":-95,"x_max":1314,"o":"m 625 415 l 522 0 l 203 0 l -95 979 l 224 979 l 358 556 l 475 979 l 768 979 l 904 556 l 995 979 l 1314 979 l 1068 0 l 749 0 l 625 415 z "},"e":{"ha":922,"x_min":41,"x_max":963,"o":"m 41 0 l 41 979 l 880 979 l 880 688 l 359 688 l 359 575 l 696 575 l 696 404 l 359 404 l 359 292 l 963 292 l 963 0 l 41 0 z "},"r":{"ha":1051,"x_min":41,"x_max":1092,"o":"m 41 0 l 41 979 l 678 979 q 872 917 796 968 q 983 779 948 865 q 986 578 1010 648 q 901 460 962 507 q 726 385 840 412 l 799 292 l 1092 292 l 1092 0 l 705 0 l 395 323 l 395 0 l 41 0 m 395 735 l 395 555 l 642 555 q 684 569 661 555 q 709 643 707 584 q 681 717 705 699 q 641 735 657 735 l 395 735 z "},"t":{"ha":926,"x_min":-7,"x_max":933,"o":"m 933 979 l 933 688 l 623 688 l 623 0 l 304 0 l 304 688 l -7 688 l -7 979 l 933 979 z "},"y":{"ha":998,"x_min":-88,"x_max":1086,"o":"m 1086 979 l 659 359 l 659 0 l 339 0 l 339 359 l -88 979 l 298 979 l 498 677 l 700 979 l 1086 979 z "},"u":{"ha":986,"x_min":7,"x_max":979,"o":"m 326 979 l 326 400 q 363 262 321 301 q 495 221 406 224 q 615 263 567 222 q 661 400 663 304 l 661 979 l 979 979 l 979 405 q 939 210 977 283 q 842 88 901 137 q 695 12 783 39 q 498 -18 606 -15 q 314 7 408 -16 q 152 79 221 30 q 44 204 82 127 q 7 404 7 281 l 7 979 l 326 979 z "},"i":{"ha":373,"x_min":27,"x_max":346,"o":"m 27 979 l 346 979 l 346 0 l 27 0 l 27 979 z "},"o":{"ha":1137,"x_min":7,"x_max":1131,"o":"m 1131 484 q 1064 210 1131 323 q 870 40 997 97 q 566 -17 743 -17 q 263 40 390 -17 q 72 210 137 98 q 7 484 7 322 q 44 700 7 607 q 153 857 81 793 q 330 954 225 921 q 566 987 434 987 q 869 929 742 987 q 1064 758 997 871 q 1131 484 1131 645 m 355 481 q 397 317 355 387 q 564 248 439 248 q 708 284 661 248 q 768 368 756 321 q 784 481 780 415 q 739 646 780 576 q 564 716 697 716 q 355 481 355 716 z "},"p":{"ha":1018,"x_min":41,"x_max":1013,"o":"m 41 0 l 41 979 l 678 979 q 873 918 796 968 q 983 779 951 868 q 1008 616 1013 670 q 986 514 1002 562 q 897 404 970 467 q 701 323 823 342 l 395 323 l 395 0 l 41 0 m 395 735 l 395 555 l 642 555 q 684 569 661 555 q 709 643 707 584 q 681 717 705 699 q 641 735 657 735 l 395 735 z "},"[":{"ha":952,"x_min":-163,"x_max":1223,"o":"m 359 979 l 359 661 l 583 979 l 902 979 l 537 490 l 700 292 l 1223 292 l 1223 0 l 606 0 l 359 292 l 359 0 l 41 0 l 41 688 l -163 688 l -163 979 l 359 979 z "},"]":{"ha":1221,"x_min":-95,"x_max":1512,"o":"m 625 415 l 522 0 l 203 0 l -95 979 l 224 979 l 358 556 l 475 979 l 768 979 l 904 556 l 995 979 l 1512 979 l 1512 688 l 1241 688 l 1068 0 l 749 0 l 625 415 z "},"\\":{"ha":38,"x_min":-201,"x_max":240,"o":"m -201 0 l -201 292 l 240 292 l 240 0 l -201 0 z "},"a":{"ha":1027,"x_min":-54,"x_max":1082,"o":"m -54 0 l 268 979 l 754 979 l 1082 0 l 711 0 l 650 176 l 359 176 l 297 0 l -54 0 m 512 762 l 372 374 l 642 374 l 512 762 z "},"s":{"ha":770,"x_min":0,"x_max":811,"o":"m 811 688 l 572 688 q 521 591 398 693 q 736 217 741 399 q 521 0 732 35 l 0 0 l 0 292 l 206 292 q 255 399 398 286 q 54 798 19 616 q 277 979 90 979 l 811 979 l 811 688 z "},"d":{"ha":1127,"x_min":41,"x_max":1120,"o":"m 41 0 l 41 979 l 618 979 q 825 948 736 979 q 977 864 915 917 q 1079 721 1038 811 q 1120 486 1120 631 q 1076 259 1113 353 q 977 111 1038 165 q 826 27 915 57 q 602 0 736 -3 l 41 0 m 368 736 l 368 244 l 554 244 q 656 271 617 244 q 719 339 694 298 q 750 490 743 381 q 723 636 748 589 q 657 710 697 683 q 553 736 617 736 l 368 736 z "},"f":{"ha":901,"x_min":41,"x_max":880,"o":"m 41 0 l 41 979 l 880 979 l 880 688 l 359 688 l 359 575 l 696 575 l 696 404 l 359 404 l 359 0 l 41 0 z "},"g":{"ha":1006,"x_min":7,"x_max":1006,"o":"m 700 292 l 700 490 l 1006 490 l 1006 0 l 572 0 q 284 57 413 0 q 81 227 155 113 q 7 504 7 340 q 51 710 7 619 q 174 860 96 800 q 355 950 253 920 q 572 979 457 979 l 841 979 l 1006 979 l 1006 688 l 700 688 q 547 682 597 688 q 459 661 498 675 q 391 612 420 647 q 356 487 361 576 q 391 363 359 400 q 467 313 422 326 q 559 296 511 301 q 700 292 606 292 z "},"h":{"ha":948,"x_min":27,"x_max":921,"o":"m 602 642 l 602 979 l 921 979 l 921 0 l 602 0 l 602 353 l 346 353 l 346 0 l 27 0 l 27 979 l 346 979 l 346 642 l 602 642 z "},"j":{"ha":596,"x_min":5,"x_max":595,"o":"m 595 979 l 595 688 l 545 688 l 545 308 q 513 153 541 195 q 429 71 484 111 q 279 9 374 31 q 130 2 187 3 q 5 0 72 1 l 5 292 q 125 292 58 278 q 198 320 178 304 q 227 397 218 336 l 227 979 l 595 979 z "},"k":{"ha":952,"x_min":41,"x_max":993,"o":"m 359 979 l 359 661 l 583 979 l 902 979 l 537 490 l 700 292 l 993 292 l 993 0 l 606 0 l 359 292 l 359 0 l 41 0 l 41 979 l 359 979 z "},"l":{"ha":890,"x_min":41,"x_max":890,"o":"m 41 0 l 41 979 l 359 979 l 359 292 l 890 292 l 890 0 l 41 0 z "},";":{"ha":922,"x_min":0,"x_max":1194,"o":"m 41 0 l 41 688 l 0 688 l 0 979 l 880 979 l 880 688 l 359 688 l 359 575 l 696 575 l 696 404 l 359 404 l 359 292 l 1194 292 l 1194 0 l 41 0 z "},"'":{"ha":439,"x_min":115,"x_max":323,"o":"m 115 551 l 115 979 l 323 979 l 323 551 l 115 551 z "},"z":{"ha":949,"x_min":27,"x_max":922,"o":"m 27 979 l 922 979 l 922 688 l 448 292 l 922 292 l 922 0 l 27 0 l 27 292 l 501 688 l 27 688 l 27 979 z "},"x":{"ha":998,"x_min":-88,"x_max":1086,"o":"m 1086 979 l 727 490 l 1086 0 l 700 0 l 498 302 l 298 0 l -88 0 l 271 490 l -88 979 l 298 979 l 498 677 l 700 979 l 1086 979 z "},"c":{"ha":1006,"x_min":7,"x_max":1006,"o":"m 700 292 l 1006 292 l 1006 0 l 572 0 q 284 57 413 0 q 81 227 155 113 q 7 504 7 340 q 51 710 7 619 q 174 860 96 800 q 355 950 253 920 q 572 979 457 979 l 841 979 l 1006 979 l 1006 688 l 700 688 q 547 682 597 688 q 459 661 498 675 q 391 612 420 647 q 356 487 361 576 q 391 363 359 400 q 467 313 422 326 q 559 296 511 301 q 700 292 606 292 z "},"v":{"ha":1105,"x_min":-54,"x_max":1160,"o":"m 319 979 l 542 227 l 767 979 l 1160 979 l 810 0 l 290 0 l -54 979 l 319 979 z "},"b":{"ha":1104,"x_min":41,"x_max":1097,"o":"m 41 0 l 41 979 l 709 979 q 953 924 869 978 q 1055 742 1037 869 q 1013 589 1061 644 q 857 497 966 533 l 857 494 q 956 466 910 488 q 1032 413 1001 444 q 1080 345 1063 383 q 1097 271 1097 307 q 1037 95 1097 155 q 885 17 978 35 q 659 0 791 -1 l 41 0 m 378 379 l 378 198 l 596 198 q 694 222 652 196 q 736 288 736 249 q 702 355 741 330 q 596 379 664 379 l 378 379 m 378 742 l 378 593 l 616 593 q 657 614 635 593 q 680 669 679 635 q 654 726 677 709 q 615 742 631 742 l 378 742 z "},"n":{"ha":970,"x_min":41,"x_max":970,"o":"m 41 0 l 41 979 l 359 979 l 651 613 l 651 979 l 970 979 l 970 0 l 651 0 l 359 366 l 359 0 l 41 0 z "},"m":{"ha":1119,"x_min":27,"x_max":1092,"o":"m 27 0 l 27 979 l 346 979 l 560 572 l 773 979 l 1092 979 l 1092 0 l 773 0 l 773 407 l 568 0 l 551 0 l 346 407 l 346 0 l 27 0 z "},",":{"ha":286,"x_min":57,"x_max":260,"o":"m 102 222 l 260 222 l 174 -12 l 57 -12 l 102 222 z "},".":{"ha":514,"x_min":106,"x_max":408,"o":"m 106 0 l 106 269 l 408 269 l 408 0 l 106 0 z "},"/":{"ha":2317,"x_min":29,"x_max":2281,"o":"m 2281 455 l 2281 319 l 2158 319 q 2131 274 2068 325 q 2243 100 2245 184 q 2131 -1 2241 16 l 1655 -1 l 1493 150 l 1493 -1 l 1308 -1 l 1308 455 l 1642 455 q 1743 426 1703 450 q 1800 361 1782 401 q 1801 268 1814 301 q 1756 212 1788 234 q 1666 178 1725 190 l 1704 134 l 1967 134 q 1992 184 2068 130 q 1887 371 1868 286 q 2003 455 1906 455 l 2281 455 m 1074 970 l 1074 836 l 912 836 l 912 515 l 745 515 l 745 836 l 545 836 q 517 791 453 842 q 630 616 632 701 q 517 515 627 532 l 30 515 l 30 651 l 353 651 q 378 701 453 647 q 274 886 255 802 q 389 970 292 970 l 1074 970 m 707 -1 l 876 455 l 1130 455 l 1300 -1 l 1107 -1 l 1074 81 l 923 81 l 890 -1 l 707 -1 m 1005 350 l 930 168 l 1072 168 l 1005 350 m 1493 344 l 1493 261 l 1622 261 q 1644 268 1632 261 q 1657 302 1656 274 q 1643 336 1655 328 q 1622 344 1630 344 l 1493 344 m 210 455 l 300 258 l 348 455 l 515 455 l 386 -1 l 220 -1 l 29 455 l 210 455 m 515 455 l 587 258 l 661 455 l 841 455 l 672 -1 l 506 -1 l 441 192 l 495 385 l 515 455 m 1000 515 l 1169 970 l 1423 970 l 1594 515 l 1400 515 l 1369 597 l 1217 597 l 1184 515 l 1000 515 m 1295 865 l 1221 684 l 1362 684 l 1295 865 m 1625 515 l 1625 970 l 1958 970 q 2060 941 2020 964 q 2117 878 2099 918 q 2119 784 2132 817 q 2075 729 2106 751 q 1984 694 2043 707 l 2022 651 l 2281 651 l 2281 515 l 1973 515 l 1811 665 l 1811 515 l 1625 515 m 1807 860 l 1807 777 l 1937 777 q 1958 783 1946 777 q 1971 817 1970 789 q 1958 852 1970 844 q 1936 860 1945 860 l 1807 860 z "}," ":{"ha":644,"x_min":0,"x_max":0,"o":""},"~":{"ha":998,"x_min":-88,"x_max":1158,"o":"m 1158 979 l 1158 688 l 887 688 l 659 359 l 659 0 l 339 0 l 339 359 l -88 979 l 298 979 l 498 677 l 700 979 l 1158 979 z "},"!":{"ha":706,"x_min":-1,"x_max":706,"o":"m 0 776 l 0 979 l 706 979 l 706 776 l 0 776 m 281 624 q 264 555 281 583 q 215 512 247 527 q 139 498 183 498 q 63 512 95 498 q 16 555 32 527 q 0 624 0 583 q 9 678 0 654 q 36 717 18 701 q 80 741 54 733 q 139 749 106 749 q 215 735 183 749 q 264 692 247 720 q 281 624 281 664 m 87 620 q 98 571 87 591 q 139 550 108 550 q 175 561 163 550 q 190 586 187 572 q 194 620 193 600 q 183 668 193 648 q 139 689 173 689 q 87 620 87 689 m 295 502 l 295 747 l 505 747 l 505 675 l 374 675 l 374 646 l 459 646 l 459 604 l 374 604 l 374 502 l 295 502 m 387 392 l 387 476 l 467 476 l 467 231 l 387 231 l 387 319 l 321 319 l 321 231 l 243 231 l 243 476 l 321 476 l 321 392 l 387 392 m 234 476 l 234 404 l 155 404 l 155 231 l 75 231 l 75 404 l -1 404 l -1 476 l 234 476 m 0 0 l 0 203 l 706 203 l 706 0 l 0 0 m 476 231 l 476 476 l 684 476 l 684 405 l 554 405 l 554 377 l 638 377 l 638 334 l 554 334 l 554 306 l 706 306 l 706 231 l 476 231 z "},"@":{"ha":1264,"x_min":35,"x_max":1225,"o":"m 347 1674 l 537 1694 l 547 1660 l 463 1598 l 410 1594 l 374 1215 q 471 1361 415 1322 q 602 1410 527 1400 q 754 1412 676 1421 q 872 1376 831 1402 q 940 1292 912 1350 q 976 1172 968 1234 l 985 1152 l 988 1057 l 1029 724 l 887 646 l 890 634 l 905 621 q 1073 616 1063 661 l 1133 606 q 1133 547 1168 564 l 407 527 l 165 496 q 256 585 126 524 l 413 598 l 389 624 l 380 649 l 399 680 l 403 692 l 332 726 l 361 1057 l 361 1142 q 332 1177 341 1147 l 374 1591 l 341 1606 l 330 1650 l 347 1674 m 751 1143 l 751 1055 l 755 1044 l 753 617 l 793 614 l 795 1074 l 803 1074 l 803 1138 l 751 1143 m 557 1148 l 539 1097 l 588 1086 l 597 1145 l 557 1148 m 481 1101 l 488 1147 l 473 1148 l 463 1101 l 481 1101 m 403 1113 l 407 1113 l 412 1132 l 376 1135 l 376 1115 l 403 1113 m 878 1133 l 868 1078 l 888 1078 l 906 1129 l 878 1133 m 909 1080 l 945 1078 l 962 1102 l 965 1124 l 926 1133 l 909 1080 m 369 1098 l 537 1080 l 644 1059 l 637 684 l 627 782 q 603 931 615 890 q 563 1003 591 972 q 507 1048 534 1034 q 448 1064 479 1063 q 376 1068 417 1066 l 369 1098 m 815 1057 l 962 1078 l 966 1041 q 917 1023 934 1031 q 886 995 899 1015 q 856 932 873 975 q 825 765 840 890 l 813 655 l 815 1057 m 359 1108 l 366 1059 q 432 1058 397 1060 q 497 1041 467 1057 q 554 995 527 1025 q 593 929 581 965 q 631 656 605 892 l 644 650 l 652 1067 l 537 1088 l 359 1108 m 806 1066 l 806 618 l 817 620 q 865 928 844 876 q 900 998 886 981 q 937 1023 913 1015 q 973 1032 960 1032 l 973 1085 l 806 1066 m 631 616 q 604 723 613 684 q 581 807 594 762 q 546 897 568 852 q 477 958 524 942 q 409 930 428 954 q 374 866 391 907 q 340 731 358 825 l 631 616 m 983 713 q 947 905 964 857 q 911 946 930 954 q 870 901 881 926 q 855 853 859 877 q 840 756 850 830 l 832 672 l 827 623 l 983 706 l 983 713 m 374 1160 l 369 1152 l 378 1139 l 438 1148 l 504 1154 l 594 1156 l 743 1149 l 842 1139 l 944 1138 l 977 1124 l 974 1158 q 885 1182 932 1175 q 768 1194 838 1189 q 630 1197 699 1198 q 504 1193 562 1195 q 374 1160 447 1190 m 388 1162 q 546 1183 459 1181 q 677 1185 633 1185 q 781 1183 722 1185 q 886 1173 840 1181 q 972 1151 932 1166 l 974 1132 l 932 1142 l 797 1152 l 698 1157 l 578 1160 l 490 1158 l 420 1152 l 378 1145 l 374 1151 l 388 1162 m 575 1374 q 692 1364 650 1366 q 775 1359 733 1362 q 826 1361 817 1356 q 829 1374 834 1366 q 807 1390 825 1382 q 753 1401 790 1397 q 685 1404 715 1404 q 630 1401 654 1404 q 575 1374 605 1397 m 821 1349 q 847 1304 828 1314 q 878 1292 865 1295 q 898 1299 890 1289 q 899 1321 906 1308 q 879 1343 892 1334 q 854 1354 865 1353 q 821 1349 844 1356 m 845 1352 q 876 1341 863 1351 q 896 1320 890 1332 q 898 1304 903 1308 q 887 1303 893 1301 q 870 1308 880 1305 q 849 1320 860 1310 q 835 1338 838 1330 q 845 1352 832 1347 m 386 1594 l 359 1295 l 395 1594 l 386 1594 m 267 553 q 172 527 193 538 q 160 509 151 516 q 186 505 169 503 q 222 519 203 507 q 267 553 240 530 m 1139 570 q 1108 594 1129 595 q 1071 583 1088 593 q 1023 568 1055 572 q 969 558 992 564 q 1008 556 946 552 q 1139 570 1071 561 m 274 454 q 245 368 288 382 l 274 353 q 358 483 302 468 q 513 425 498 483 q 443 266 541 309 l 358 266 l 288 338 q 92 266 274 252 l 77 411 l 35 411 l 35 483 q 274 454 274 497 m 147 396 l 203 396 l 203 425 l 147 425 l 147 396 m 147 309 l 217 324 l 203 353 l 147 353 l 147 309 m 387 309 l 443 324 l 429 425 l 358 411 q 387 309 343 338 m 527 483 q 724 454 711 497 q 696 368 739 382 q 739 324 739 382 l 795 483 l 894 483 l 949 309 l 949 266 l 808 309 l 780 266 l 711 294 q 527 266 654 252 l 527 483 m 597 396 l 654 396 l 654 425 l 597 425 l 597 396 m 597 309 l 668 324 l 654 353 l 597 353 l 597 309 m 823 353 l 865 353 l 851 425 l 823 396 l 823 353 m 208 231 l 406 231 l 406 159 l 307 144 l 378 144 l 378 102 l 322 102 l 294 15 l 237 28 l 208 159 l 208 231 m 646 174 q 575 15 673 58 q 420 87 435 15 q 490 231 392 159 q 646 174 631 231 m 518 58 l 575 73 l 562 174 l 490 159 q 518 58 477 87 m 661 233 q 774 176 718 262 q 803 233 774 233 l 1027 233 l 1027 161 l 971 161 l 971 90 l 1098 90 q 1070 233 1000 191 l 1211 233 l 1211 176 l 1141 146 q 1141 16 1225 60 l 916 16 l 901 146 l 844 161 l 831 16 l 787 16 l 718 90 l 718 16 l 661 16 l 661 233 z "},"#":{"ha":760,"x_min":-1,"x_max":760,"o":"m 0 776 l 0 979 l 760 979 l 760 776 l 0 776 m 528 625 q 511 556 528 585 q 462 514 494 528 q 386 499 430 499 q 310 514 342 499 q 263 556 279 528 q 247 625 247 585 q 256 679 247 656 q 282 719 264 703 q 327 743 300 734 q 386 751 353 751 q 462 736 430 751 q 511 693 494 722 q 528 625 528 665 m 334 625 q 344 575 334 596 q 385 555 354 555 q 421 566 410 555 q 436 591 433 577 q 440 625 439 604 q 429 673 439 652 q 385 694 419 694 q 334 625 334 694 m 387 392 l 387 476 l 467 476 l 467 231 l 387 231 l 387 319 l 321 319 l 321 231 l 243 231 l 243 476 l 321 476 l 321 392 l 387 392 m 234 747 l 234 675 l 155 675 l 155 503 l 75 503 l 75 675 l -1 675 l -1 747 l 234 747 m 0 0 l 0 203 l 760 203 l 760 0 l 0 0 m 476 231 l 476 476 l 684 476 l 684 405 l 554 405 l 554 377 l 638 377 l 638 334 l 554 334 l 554 306 l 706 306 l 706 231 l 476 231 m 234 476 l 234 404 l 155 404 l 155 231 l 75 231 l 75 404 l -1 404 l -1 476 l 234 476 z "},"$":{"ha":760,"x_min":-1,"x_max":760,"o":"m 0 776 l 0 979 l 760 979 l 760 776 l 0 776 m 490 625 q 473 556 490 585 q 424 514 456 528 q 348 499 392 499 q 272 514 304 499 q 225 556 241 528 q 209 625 209 585 q 218 679 209 656 q 244 719 227 703 q 289 743 262 734 q 348 751 315 751 q 424 736 392 751 q 473 693 456 722 q 490 625 490 665 m 294 625 q 304 575 294 596 q 346 555 315 555 q 382 566 370 555 q 397 591 394 577 q 401 625 399 604 q 390 673 399 652 q 346 694 380 694 q 294 625 294 694 m 0 503 l 0 747 l 210 747 l 210 675 l 79 675 l 79 646 l 164 646 l 164 605 l 79 605 l 79 503 l 0 503 m 387 392 l 387 476 l 467 476 l 467 231 l 387 231 l 387 319 l 321 319 l 321 231 l 243 231 l 243 476 l 321 476 l 321 392 l 387 392 m 234 476 l 234 404 l 155 404 l 155 231 l 75 231 l 75 404 l -1 404 l -1 476 l 234 476 m 0 0 l 0 203 l 760 203 l 760 0 l 0 0 m 476 231 l 476 476 l 684 476 l 684 405 l 554 405 l 554 377 l 638 377 l 638 334 l 554 334 l 554 306 l 706 306 l 706 231 l 476 231 m 497 503 l 497 748 l 656 748 q 705 734 686 747 q 733 699 724 721 q 734 648 740 666 q 712 619 728 631 q 669 601 697 608 l 687 577 l 760 577 l 760 503 l 663 503 l 585 585 l 585 503 l 497 503 m 585 692 l 585 647 l 647 647 q 658 650 652 647 q 664 669 664 654 q 657 688 663 683 q 647 692 651 692 l 585 692 z "},"%":{"ha":760,"x_min":-1,"x_max":760,"o":"m 0 776 l 0 979 l 760 979 l 760 776 l 0 776 m 387 392 l 387 476 l 467 476 l 467 231 l 387 231 l 387 319 l 321 319 l 321 231 l 243 231 l 243 476 l 321 476 l 321 392 l 387 392 m 0 0 l 0 203 l 760 203 l 760 0 l 0 0 m 476 231 l 476 476 l 684 476 l 684 405 l 554 405 l 554 377 l 638 377 l 638 334 l 554 334 l 554 306 l 706 306 l 706 231 l 476 231 m 234 476 l 234 404 l 155 404 l 155 231 l 75 231 l 75 404 l -1 404 l -1 476 l 234 476 m 19 748 l 136 748 l 136 503 l 19 503 l 19 748 m 182 503 l 182 748 l 269 748 l 351 656 l 351 748 l 441 748 l 441 503 l 351 503 l 269 595 l 269 503 l 182 503 z "},"^":{"ha":1264,"x_min":35,"x_max":1225,"o":"m 347 1674 l 537 1694 l 547 1660 l 463 1598 l 410 1594 l 374 1215 q 471 1361 415 1322 q 602 1410 527 1400 q 754 1412 676 1421 q 872 1376 831 1402 q 940 1292 912 1350 q 976 1172 968 1234 l 985 1152 l 988 1057 l 1029 724 l 887 646 l 890 634 l 905 621 q 1073 616 1063 661 l 1133 606 q 1133 547 1168 564 l 407 527 l 165 496 q 256 585 126 524 l 413 598 l 389 624 l 380 649 l 399 680 l 403 692 l 332 726 l 361 1057 l 361 1142 q 332 1177 341 1147 l 374 1591 l 341 1606 l 330 1650 l 347 1674 m 751 1143 l 751 1055 l 755 1044 l 753 617 l 793 614 l 795 1074 l 803 1074 l 803 1138 l 751 1143 m 557 1148 l 539 1097 l 588 1086 l 597 1145 l 557 1148 m 481 1101 l 488 1147 l 473 1148 l 463 1101 l 481 1101 m 403 1113 l 407 1113 l 412 1132 l 376 1135 l 376 1115 l 403 1113 m 878 1133 l 868 1078 l 888 1078 l 906 1129 l 878 1133 m 909 1080 l 945 1078 l 962 1102 l 965 1124 l 926 1133 l 909 1080 m 369 1098 l 537 1080 l 644 1059 l 637 684 l 627 782 q 603 931 615 890 q 563 1003 591 972 q 507 1048 534 1034 q 448 1064 479 1063 q 376 1068 417 1066 l 369 1098 m 815 1057 l 962 1078 l 966 1041 q 917 1023 934 1031 q 886 995 899 1015 q 856 932 873 975 q 825 765 840 890 l 813 655 l 815 1057 m 359 1108 l 366 1059 q 432 1058 397 1060 q 497 1041 467 1057 q 554 995 527 1025 q 593 929 581 965 q 631 656 605 892 l 644 650 l 652 1067 l 537 1088 l 359 1108 m 806 1066 l 806 618 l 817 620 q 865 928 844 876 q 900 998 886 981 q 937 1023 913 1015 q 973 1032 960 1032 l 973 1085 l 806 1066 m 631 616 q 604 723 613 684 q 581 807 594 762 q 546 897 568 852 q 477 958 524 942 q 409 930 428 954 q 374 866 391 907 q 340 731 358 825 l 631 616 m 983 713 q 947 905 964 857 q 911 946 930 954 q 870 901 881 926 q 855 853 859 877 q 840 756 850 830 l 832 672 l 827 623 l 983 706 l 983 713 m 374 1160 l 369 1152 l 378 1139 l 438 1148 l 504 1154 l 594 1156 l 743 1149 l 842 1139 l 944 1138 l 977 1124 l 974 1158 q 885 1182 932 1175 q 768 1194 838 1189 q 630 1197 699 1198 q 504 1193 562 1195 q 374 1160 447 1190 m 388 1162 q 546 1183 459 1181 q 677 1185 633 1185 q 781 1183 722 1185 q 886 1173 840 1181 q 972 1151 932 1166 l 974 1132 l 932 1142 l 797 1152 l 698 1157 l 578 1160 l 490 1158 l 420 1152 l 378 1145 l 374 1151 l 388 1162 m 575 1374 q 692 1364 650 1366 q 775 1359 733 1362 q 826 1361 817 1356 q 829 1374 834 1366 q 807 1390 825 1382 q 753 1401 790 1397 q 685 1404 715 1404 q 630 1401 654 1404 q 575 1374 605 1397 m 821 1349 q 847 1304 828 1314 q 878 1292 865 1295 q 898 1299 890 1289 q 899 1321 906 1308 q 879 1343 892 1334 q 854 1354 865 1353 q 821 1349 844 1356 m 845 1352 q 876 1341 863 1351 q 896 1320 890 1332 q 898 1304 903 1308 q 887 1303 893 1301 q 870 1308 880 1305 q 849 1320 860 1310 q 835 1338 838 1330 q 845 1352 832 1347 m 386 1594 l 359 1295 l 395 1594 l 386 1594 m 267 553 q 172 527 193 538 q 160 509 151 516 q 186 505 169 503 q 222 519 203 507 q 267 553 240 530 m 1139 570 q 1108 594 1129 595 q 1071 583 1088 593 q 1023 568 1055 572 q 969 558 992 564 q 1008 556 946 552 q 1139 570 1071 561 m 274 454 q 245 368 288 382 l 274 353 q 358 483 302 468 q 513 425 498 483 q 443 266 541 309 l 358 266 l 288 338 q 92 266 274 252 l 77 411 l 35 411 l 35 483 q 274 454 274 497 m 147 396 l 203 396 l 203 425 l 147 425 l 147 396 m 147 309 l 217 324 l 203 353 l 147 353 l 147 309 m 387 309 l 443 324 l 429 425 l 358 411 q 387 309 343 338 m 527 483 q 724 454 711 497 q 696 368 739 382 q 739 324 739 382 l 795 483 l 894 483 l 949 309 l 949 266 l 808 309 l 780 266 l 711 294 q 527 266 654 252 l 527 483 m 597 396 l 654 396 l 654 425 l 597 425 l 597 396 m 597 309 l 668 324 l 654 353 l 597 353 l 597 309 m 823 353 l 865 353 l 851 425 l 823 396 l 823 353 m 208 231 l 406 231 l 406 159 l 307 144 l 378 144 l 378 102 l 322 102 l 294 15 l 237 28 l 208 159 l 208 231 m 646 174 q 575 15 673 58 q 420 87 435 15 q 490 231 392 159 q 646 174 631 231 m 518 58 l 575 73 l 562 174 l 490 159 q 518 58 477 87 m 661 233 q 774 176 718 262 q 803 233 774 233 l 1027 233 l 1027 161 l 971 161 l 971 90 l 1098 90 q 1070 233 1000 191 l 1211 233 l 1211 176 l 1141 146 q 1141 16 1225 60 l 916 16 l 901 146 l 844 161 l 831 16 l 787 16 l 718 90 l 718 16 l 661 16 l 661 233 z "},"&":{"ha":706,"x_min":-1,"x_max":706,"o":"m 0 776 l 0 979 l 706 979 l 706 776 l 0 776 m 388 663 l 388 747 l 468 747 l 468 503 l 388 503 l 388 591 l 323 591 l 323 503 l 244 503 l 244 747 l 323 747 l 323 663 l 388 663 m 234 747 l 234 675 l 155 675 l 155 503 l 75 503 l 75 675 l -1 675 l -1 747 l 234 747 m 476 503 l 476 747 l 684 747 l 684 676 l 554 676 l 554 648 l 638 648 l 638 605 l 554 605 l 554 577 l 706 577 l 706 503 l 476 503 z "},"*":{"ha":706,"x_min":-1,"x_max":706,"o":"m 387 392 l 387 476 l 467 476 l 467 231 l 387 231 l 387 319 l 321 319 l 321 231 l 243 231 l 243 476 l 321 476 l 321 392 l 387 392 m 234 476 l 234 404 l 155 404 l 155 231 l 75 231 l 75 404 l -1 404 l -1 476 l 234 476 m 0 0 l 0 203 l 706 203 l 706 0 l 0 0 m 476 231 l 476 476 l 684 476 l 684 405 l 554 405 l 554 377 l 638 377 l 638 334 l 554 334 l 554 306 l 706 306 l 706 231 l 476 231 z "},"(":{"ha":514,"x_min":38,"x_max":481,"o":"m 481 -15 l 227 -15 q 126 185 169 81 q 61 397 84 290 q 38 613 38 504 q 227 1242 38 921 l 481 1242 q 412 1095 441 1170 q 363 938 383 1019 q 334 776 343 857 q 324 613 324 694 q 334 450 324 532 q 363 288 344 368 q 412 133 382 208 q 481 -15 441 58 z "},")":{"ha":514,"x_min":24,"x_max":467,"o":"m 278 -15 l 24 -15 q 180 613 180 273 q 170 780 180 694 q 141 942 160 865 q 91 1099 122 1019 q 24 1242 60 1179 l 278 1242 q 378 1042 336 1144 q 443 831 420 939 q 467 613 467 723 q 443 395 467 503 q 378 185 420 287 q 278 -15 336 83 z "},"_":{"ha":986,"x_min":-197,"x_max":979,"o":"m 979 979 l 979 404 q 942 204 979 281 q 834 79 904 127 q 672 7 765 30 q 488 -18 578 -16 q 291 12 380 -15 q 144 88 203 39 q 47 210 85 137 q 7 405 9 283 l 7 688 l -197 688 l -197 979 l 326 979 l 326 400 q 371 263 323 304 q 491 221 419 222 q 623 262 581 224 q 661 400 665 301 l 661 979 l 979 979 z "},"+":{"ha":987,"x_min":-68,"x_max":1055,"o":"m -68 688 l -68 979 l 1055 979 l 1055 688 l -68 688 z "},"Q":{"ha":1119,"x_min":27,"x_max":1363,"o":"m 773 0 l 773 407 l 568 0 l 551 0 l 346 407 l 346 0 l 27 0 l 27 979 l 346 979 l 559 572 l 773 979 l 1363 979 l 1363 688 l 1092 688 l 1092 0 l 773 0 z "},"W":{"ha":1221,"x_min":-168,"x_max":1367,"o":"m 682 415 l 579 0 l 260 0 l 35 688 l -168 688 l -168 979 l 281 979 l 415 556 l 532 979 l 825 979 l 961 556 l 1052 979 l 1367 979 l 1125 0 l 806 0 l 682 415 z "},"E":{"ha":922,"x_min":-163,"x_max":963,"o":"m 41 0 l 41 688 l -163 688 l -163 979 l 880 979 l 880 688 l 359 688 l 359 575 l 696 575 l 696 404 l 359 404 l 359 292 l 963 292 l 963 0 l 41 0 z "},"R":{"ha":1051,"x_min":41,"x_max":1322,"o":"m 41 0 l 41 979 l 678 979 q 872 917 796 968 q 983 779 948 865 q 986 578 1010 648 q 901 460 962 507 q 726 385 840 412 l 799 292 l 1322 292 l 1322 0 l 705 0 l 395 323 l 395 0 l 41 0 m 395 735 l 395 555 l 642 555 q 684 569 661 555 q 709 643 707 584 q 681 717 705 699 q 641 735 657 735 l 395 735 z "},"T":{"ha":726,"x_min":-107,"x_max":833,"o":"m 833 979 l 833 688 l 522 688 l 522 0 l 203 0 l 203 688 l -107 688 l -107 979 l 833 979 z "},"Y":{"ha":998,"x_min":-92,"x_max":1086,"o":"m 298 979 l 500 677 l 700 979 l 1086 979 l 659 359 l 659 0 l 339 0 l 339 359 l 111 688 l -92 688 l -92 979 l 298 979 z "},"U":{"ha":1264,"x_min":35,"x_max":1225,"o":"m 347 1674 l 537 1694 l 547 1660 l 463 1598 l 410 1594 l 374 1215 q 471 1361 415 1322 q 602 1410 527 1400 q 754 1412 676 1421 q 872 1376 831 1402 q 940 1292 912 1350 q 976 1172 968 1234 l 985 1152 l 988 1057 l 1029 724 l 887 646 l 890 634 l 905 621 q 1073 616 1063 661 l 1133 606 q 1133 547 1168 564 l 407 527 l 165 496 q 256 585 126 524 l 413 598 l 389 624 l 380 649 l 399 680 l 403 692 l 332 726 l 361 1057 l 361 1142 q 332 1177 341 1147 l 374 1591 l 341 1606 l 330 1650 l 347 1674 m 751 1143 l 751 1055 l 755 1044 l 753 617 l 793 614 l 795 1074 l 803 1074 l 803 1138 l 751 1143 m 557 1148 l 539 1097 l 588 1086 l 597 1145 l 557 1148 m 481 1101 l 488 1147 l 473 1148 l 463 1101 l 481 1101 m 403 1113 l 407 1113 l 412 1132 l 376 1135 l 376 1115 l 403 1113 m 878 1133 l 868 1078 l 888 1078 l 906 1129 l 878 1133 m 909 1080 l 945 1078 l 962 1102 l 965 1124 l 926 1133 l 909 1080 m 369 1098 l 537 1080 l 644 1059 l 637 684 l 627 782 q 603 931 615 890 q 563 1003 591 972 q 507 1048 534 1034 q 448 1064 479 1063 q 376 1068 417 1066 l 369 1098 m 815 1057 l 962 1078 l 966 1041 q 917 1023 934 1031 q 886 995 899 1015 q 856 932 873 975 q 825 765 840 890 l 813 655 l 815 1057 m 359 1108 l 366 1059 q 432 1058 397 1060 q 497 1041 467 1057 q 554 995 527 1025 q 593 929 581 965 q 631 656 605 892 l 644 650 l 652 1067 l 537 1088 l 359 1108 m 806 1066 l 806 618 l 817 620 q 865 928 844 876 q 900 998 886 981 q 937 1023 913 1015 q 973 1032 960 1032 l 973 1085 l 806 1066 m 631 616 q 604 723 613 684 q 581 807 594 762 q 546 897 568 852 q 477 958 524 942 q 409 930 428 954 q 374 866 391 907 q 340 731 358 825 l 631 616 m 983 713 q 947 905 964 857 q 911 946 930 954 q 870 901 881 926 q 855 853 859 877 q 840 756 850 830 l 832 672 l 827 623 l 983 706 l 983 713 m 374 1160 l 369 1152 l 378 1139 l 438 1148 l 504 1154 l 594 1156 l 743 1149 l 842 1139 l 944 1138 l 977 1124 l 974 1158 q 885 1182 932 1175 q 768 1194 838 1189 q 630 1197 699 1198 q 504 1193 562 1195 q 374 1160 447 1190 m 388 1162 q 546 1183 459 1181 q 677 1185 633 1185 q 781 1183 722 1185 q 886 1173 840 1181 q 972 1151 932 1166 l 974 1132 l 932 1142 l 797 1152 l 698 1157 l 578 1160 l 490 1158 l 420 1152 l 378 1145 l 374 1151 l 388 1162 m 575 1374 q 692 1364 650 1366 q 775 1359 733 1362 q 826 1361 817 1356 q 829 1374 834 1366 q 807 1390 825 1382 q 753 1401 790 1397 q 685 1404 715 1404 q 630 1401 654 1404 q 575 1374 605 1397 m 821 1349 q 847 1304 828 1314 q 878 1292 865 1295 q 898 1299 890 1289 q 899 1321 906 1308 q 879 1343 892 1334 q 854 1354 865 1353 q 821 1349 844 1356 m 845 1352 q 876 1341 863 1351 q 896 1320 890 1332 q 898 1304 903 1308 q 887 1303 893 1301 q 870 1308 880 1305 q 849 1320 860 1310 q 835 1338 838 1330 q 845 1352 832 1347 m 386 1594 l 359 1295 l 395 1594 l 386 1594 m 267 553 q 172 527 193 538 q 160 509 151 516 q 186 505 169 503 q 222 519 203 507 q 267 553 240 530 m 1139 570 q 1108 594 1129 595 q 1071 583 1088 593 q 1023 568 1055 572 q 969 558 992 564 q 1008 556 946 552 q 1139 570 1071 561 m 274 454 q 245 368 288 382 l 274 353 q 358 483 302 468 q 513 425 498 483 q 443 266 541 309 l 358 266 l 288 338 q 92 266 274 252 l 77 411 l 35 411 l 35 483 q 274 454 274 497 m 147 396 l 203 396 l 203 425 l 147 425 l 147 396 m 147 309 l 217 324 l 203 353 l 147 353 l 147 309 m 387 309 l 443 324 l 429 425 l 358 411 q 387 309 343 338 m 527 483 q 724 454 711 497 q 696 368 739 382 q 739 324 739 382 l 795 483 l 894 483 l 949 309 l 949 266 l 808 309 l 780 266 l 711 294 q 527 266 654 252 l 527 483 m 597 396 l 654 396 l 654 425 l 597 425 l 597 396 m 597 309 l 668 324 l 654 353 l 597 353 l 597 309 m 823 353 l 865 353 l 851 425 l 823 396 l 823 353 m 208 231 l 406 231 l 406 159 l 307 144 l 378 144 l 378 102 l 322 102 l 294 15 l 237 28 l 208 159 l 208 231 m 646 174 q 575 15 673 58 q 420 87 435 15 q 490 231 392 159 q 646 174 631 231 m 518 58 l 575 73 l 562 174 l 490 159 q 518 58 477 87 m 661 233 q 774 176 718 262 q 803 233 774 233 l 1027 233 l 1027 161 l 971 161 l 971 90 l 1098 90 q 1070 233 1000 191 l 1211 233 l 1211 176 l 1141 146 q 1141 16 1225 60 l 916 16 l 901 146 l 844 161 l 831 16 l 787 16 l 718 90 l 718 16 l 661 16 l 661 233 z "},"I":{"ha":948,"x_min":27,"x_max":1192,"o":"m 602 642 l 602 979 l 1192 979 l 1192 688 l 921 688 l 921 0 l 602 0 l 602 353 l 346 353 l 346 0 l 27 0 l 27 979 l 346 979 l 346 642 l 602 642 z "},"O":{"ha":970,"x_min":-163,"x_max":970,"o":"m 41 0 l 41 688 l -163 688 l -163 979 l 359 979 l 651 613 l 651 979 l 970 979 l 970 0 l 651 0 l 359 366 l 359 0 l 41 0 z "},"P":{"ha":1018,"x_min":-163,"x_max":1013,"o":"m 41 0 l 41 688 l -163 688 l -163 979 l 678 979 q 873 918 796 968 q 983 779 951 868 q 1008 616 1013 670 q 986 514 1002 562 q 897 404 970 467 q 701 323 823 342 l 395 323 l 395 0 l 41 0 m 395 735 l 395 555 l 642 555 q 684 569 661 555 q 709 643 707 584 q 681 717 705 699 q 641 735 657 735 l 395 735 z "},"{":{"ha":1264,"x_min":35,"x_max":1225,"o":"m 347 1674 l 537 1694 l 547 1660 l 463 1598 l 410 1594 l 374 1215 q 471 1361 415 1322 q 602 1410 527 1400 q 754 1412 676 1421 q 872 1376 831 1402 q 940 1292 912 1350 q 976 1172 968 1234 l 985 1152 l 988 1057 l 1029 724 l 887 646 l 890 634 l 905 621 q 1073 616 1063 661 l 1133 606 q 1133 547 1168 564 l 407 527 l 165 496 q 256 585 126 524 l 413 598 l 389 624 l 380 649 l 399 680 l 403 692 l 332 726 l 361 1057 l 361 1142 q 332 1177 341 1147 l 374 1591 l 341 1606 l 330 1650 l 347 1674 m 751 1143 l 751 1055 l 755 1044 l 753 617 l 793 614 l 795 1074 l 803 1074 l 803 1138 l 751 1143 m 557 1148 l 539 1097 l 588 1086 l 597 1145 l 557 1148 m 481 1101 l 488 1147 l 473 1148 l 463 1101 l 481 1101 m 403 1113 l 407 1113 l 412 1132 l 376 1135 l 376 1115 l 403 1113 m 878 1133 l 868 1078 l 888 1078 l 906 1129 l 878 1133 m 909 1080 l 945 1078 l 962 1102 l 965 1124 l 926 1133 l 909 1080 m 369 1098 l 537 1080 l 644 1059 l 637 684 l 627 782 q 603 931 615 890 q 563 1003 591 972 q 507 1048 534 1034 q 448 1064 479 1063 q 376 1068 417 1066 l 369 1098 m 815 1057 l 962 1078 l 966 1041 q 917 1023 934 1031 q 886 995 899 1015 q 856 932 873 975 q 825 765 840 890 l 813 655 l 815 1057 m 359 1108 l 366 1059 q 432 1058 397 1060 q 497 1041 467 1057 q 554 995 527 1025 q 593 929 581 965 q 631 656 605 892 l 644 650 l 652 1067 l 537 1088 l 359 1108 m 806 1066 l 806 618 l 817 620 q 865 928 844 876 q 900 998 886 981 q 937 1023 913 1015 q 973 1032 960 1032 l 973 1085 l 806 1066 m 631 616 q 604 723 613 684 q 581 807 594 762 q 546 897 568 852 q 477 958 524 942 q 409 930 428 954 q 374 866 391 907 q 340 731 358 825 l 631 616 m 983 713 q 947 905 964 857 q 911 946 930 954 q 870 901 881 926 q 855 853 859 877 q 840 756 850 830 l 832 672 l 827 623 l 983 706 l 983 713 m 374 1160 l 369 1152 l 378 1139 l 438 1148 l 504 1154 l 594 1156 l 743 1149 l 842 1139 l 944 1138 l 977 1124 l 974 1158 q 885 1182 932 1175 q 768 1194 838 1189 q 630 1197 699 1198 q 504 1193 562 1195 q 374 1160 447 1190 m 388 1162 q 546 1183 459 1181 q 677 1185 633 1185 q 781 1183 722 1185 q 886 1173 840 1181 q 972 1151 932 1166 l 974 1132 l 932 1142 l 797 1152 l 698 1157 l 578 1160 l 490 1158 l 420 1152 l 378 1145 l 374 1151 l 388 1162 m 575 1374 q 692 1364 650 1366 q 775 1359 733 1362 q 826 1361 817 1356 q 829 1374 834 1366 q 807 1390 825 1382 q 753 1401 790 1397 q 685 1404 715 1404 q 630 1401 654 1404 q 575 1374 605 1397 m 821 1349 q 847 1304 828 1314 q 878 1292 865 1295 q 898 1299 890 1289 q 899 1321 906 1308 q 879 1343 892 1334 q 854 1354 865 1353 q 821 1349 844 1356 m 845 1352 q 876 1341 863 1351 q 896 1320 890 1332 q 898 1304 903 1308 q 887 1303 893 1301 q 870 1308 880 1305 q 849 1320 860 1310 q 835 1338 838 1330 q 845 1352 832 1347 m 386 1594 l 359 1295 l 395 1594 l 386 1594 m 267 553 q 172 527 193 538 q 160 509 151 516 q 186 505 169 503 q 222 519 203 507 q 267 553 240 530 m 1139 570 q 1108 594 1129 595 q 1071 583 1088 593 q 1023 568 1055 572 q 969 558 992 564 q 1008 556 946 552 q 1139 570 1071 561 m 274 454 q 245 368 288 382 l 274 353 q 358 483 302 468 q 513 425 498 483 q 443 266 541 309 l 358 266 l 288 338 q 92 266 274 252 l 77 411 l 35 411 l 35 483 q 274 454 274 497 m 147 396 l 203 396 l 203 425 l 147 425 l 147 396 m 147 309 l 217 324 l 203 353 l 147 353 l 147 309 m 387 309 l 443 324 l 429 425 l 358 411 q 387 309 343 338 m 527 483 q 724 454 711 497 q 696 368 739 382 q 739 324 739 382 l 795 483 l 894 483 l 949 309 l 949 266 l 808 309 l 780 266 l 711 294 q 527 266 654 252 l 527 483 m 597 396 l 654 396 l 654 425 l 597 425 l 597 396 m 597 309 l 668 324 l 654 353 l 597 353 l 597 309 m 823 353 l 865 353 l 851 425 l 823 396 l 823 353 m 208 231 l 406 231 l 406 159 l 307 144 l 378 144 l 378 102 l 322 102 l 294 15 l 237 28 l 208 159 l 208 231 m 646 174 q 575 15 673 58 q 420 87 435 15 q 490 231 392 159 q 646 174 631 231 m 518 58 l 575 73 l 562 174 l 490 159 q 518 58 477 87 m 661 233 q 774 176 718 262 q 803 233 774 233 l 1027 233 l 1027 161 l 971 161 l 971 90 l 1098 90 q 1070 233 1000 191 l 1211 233 l 1211 176 l 1141 146 q 1141 16 1225 60 l 916 16 l 901 146 l 844 161 l 831 16 l 787 16 l 718 90 l 718 16 l 661 16 l 661 233 z "},"}":{"ha":1264,"x_min":35,"x_max":1225,"o":"m 347 1674 l 537 1694 l 547 1660 l 463 1598 l 410 1594 l 374 1215 q 471 1361 415 1322 q 602 1410 527 1400 q 754 1412 676 1421 q 872 1376 831 1402 q 940 1292 912 1350 q 976 1172 968 1234 l 985 1152 l 988 1057 l 1029 724 l 887 646 l 890 634 l 905 621 q 1073 616 1063 661 l 1133 606 q 1133 547 1168 564 l 407 527 l 165 496 q 256 585 126 524 l 413 598 l 389 624 l 380 649 l 399 680 l 403 692 l 332 726 l 361 1057 l 361 1142 q 332 1177 341 1147 l 374 1591 l 341 1606 l 330 1650 l 347 1674 m 751 1143 l 751 1055 l 755 1044 l 753 617 l 793 614 l 795 1074 l 803 1074 l 803 1138 l 751 1143 m 557 1148 l 539 1097 l 588 1086 l 597 1145 l 557 1148 m 481 1101 l 488 1147 l 473 1148 l 463 1101 l 481 1101 m 403 1113 l 407 1113 l 412 1132 l 376 1135 l 376 1115 l 403 1113 m 878 1133 l 868 1078 l 888 1078 l 906 1129 l 878 1133 m 909 1080 l 945 1078 l 962 1102 l 965 1124 l 926 1133 l 909 1080 m 369 1098 l 537 1080 l 644 1059 l 637 684 l 627 782 q 603 931 615 890 q 563 1003 591 972 q 507 1048 534 1034 q 448 1064 479 1063 q 376 1068 417 1066 l 369 1098 m 815 1057 l 962 1078 l 966 1041 q 917 1023 934 1031 q 886 995 899 1015 q 856 932 873 975 q 825 765 840 890 l 813 655 l 815 1057 m 359 1108 l 366 1059 q 432 1058 397 1060 q 497 1041 467 1057 q 554 995 527 1025 q 593 929 581 965 q 631 656 605 892 l 644 650 l 652 1067 l 537 1088 l 359 1108 m 806 1066 l 806 618 l 817 620 q 865 928 844 876 q 900 998 886 981 q 937 1023 913 1015 q 973 1032 960 1032 l 973 1085 l 806 1066 m 631 616 q 604 723 613 684 q 581 807 594 762 q 546 897 568 852 q 477 958 524 942 q 409 930 428 954 q 374 866 391 907 q 340 731 358 825 l 631 616 m 983 713 q 947 905 964 857 q 911 946 930 954 q 870 901 881 926 q 855 853 859 877 q 840 756 850 830 l 832 672 l 827 623 l 983 706 l 983 713 m 374 1160 l 369 1152 l 378 1139 l 438 1148 l 504 1154 l 594 1156 l 743 1149 l 842 1139 l 944 1138 l 977 1124 l 974 1158 q 885 1182 932 1175 q 768 1194 838 1189 q 630 1197 699 1198 q 504 1193 562 1195 q 374 1160 447 1190 m 388 1162 q 546 1183 459 1181 q 677 1185 633 1185 q 781 1183 722 1185 q 886 1173 840 1181 q 972 1151 932 1166 l 974 1132 l 932 1142 l 797 1152 l 698 1157 l 578 1160 l 490 1158 l 420 1152 l 378 1145 l 374 1151 l 388 1162 m 575 1374 q 692 1364 650 1366 q 775 1359 733 1362 q 826 1361 817 1356 q 829 1374 834 1366 q 807 1390 825 1382 q 753 1401 790 1397 q 685 1404 715 1404 q 630 1401 654 1404 q 575 1374 605 1397 m 821 1349 q 847 1304 828 1314 q 878 1292 865 1295 q 898 1299 890 1289 q 899 1321 906 1308 q 879 1343 892 1334 q 854 1354 865 1353 q 821 1349 844 1356 m 845 1352 q 876 1341 863 1351 q 896 1320 890 1332 q 898 1304 903 1308 q 887 1303 893 1301 q 870 1308 880 1305 q 849 1320 860 1310 q 835 1338 838 1330 q 845 1352 832 1347 m 386 1594 l 359 1295 l 395 1594 l 386 1594 m 267 553 q 172 527 193 538 q 160 509 151 516 q 186 505 169 503 q 222 519 203 507 q 267 553 240 530 m 1139 570 q 1108 594 1129 595 q 1071 583 1088 593 q 1023 568 1055 572 q 969 558 992 564 q 1008 556 946 552 q 1139 570 1071 561 m 274 454 q 245 368 288 382 l 274 353 q 358 483 302 468 q 513 425 498 483 q 443 266 541 309 l 358 266 l 288 338 q 92 266 274 252 l 77 411 l 35 411 l 35 483 q 274 454 274 497 m 147 396 l 203 396 l 203 425 l 147 425 l 147 396 m 147 309 l 217 324 l 203 353 l 147 353 l 147 309 m 387 309 l 443 324 l 429 425 l 358 411 q 387 309 343 338 m 527 483 q 724 454 711 497 q 696 368 739 382 q 739 324 739 382 l 795 483 l 894 483 l 949 309 l 949 266 l 808 309 l 780 266 l 711 294 q 527 266 654 252 l 527 483 m 597 396 l 654 396 l 654 425 l 597 425 l 597 396 m 597 309 l 668 324 l 654 353 l 597 353 l 597 309 m 823 353 l 865 353 l 851 425 l 823 396 l 823 353 m 208 231 l 406 231 l 406 159 l 307 144 l 378 144 l 378 102 l 322 102 l 294 15 l 237 28 l 208 159 l 208 231 m 646 174 q 575 15 673 58 q 420 87 435 15 q 490 231 392 159 q 646 174 631 231 m 518 58 l 575 73 l 562 174 l 490 159 q 518 58 477 87 m 661 233 q 774 176 718 262 q 803 233 774 233 l 1027 233 l 1027 161 l 971 161 l 971 90 l 1098 90 q 1070 233 1000 191 l 1211 233 l 1211 176 l 1141 146 q 1141 16 1225 60 l 916 16 l 901 146 l 844 161 l 831 16 l 787 16 l 718 90 l 718 16 l 661 16 l 661 233 z "},"|":{"ha":38,"x_min":-201,"x_max":240,"o":"m -201 688 l -201 979 l 240 979 l 240 688 l -201 688 z "},"A":{"ha":1027,"x_min":-68,"x_max":1082,"o":"m 512 762 l 372 374 l 642 374 l 512 762 m -68 688 l -68 979 l 754 979 l 1082 0 l 711 0 l 650 176 l 359 176 l 297 0 l -54 0 l 172 688 l -68 688 z "},"S":{"ha":770,"x_min":-334,"x_max":880,"o":"m 880 688 l 572 688 q 521 591 398 693 q 736 217 741 399 q 521 0 732 35 l -334 0 l -334 292 l 206 292 q 255 399 398 286 q 54 798 19 616 q 277 979 90 979 l 880 979 l 880 688 z "},"D":{"ha":1127,"x_min":-163,"x_max":1120,"o":"m 41 0 l 41 688 l -163 688 l -163 979 l 618 979 q 825 948 736 979 q 977 864 915 917 q 1079 721 1038 811 q 1120 486 1120 631 q 1076 259 1113 353 q 977 111 1038 165 q 826 27 915 57 q 602 0 736 -3 l 41 0 m 368 736 l 368 244 l 554 244 q 656 271 617 244 q 719 339 694 298 q 750 490 743 381 q 723 636 748 589 q 657 710 697 683 q 553 736 617 736 l 368 736 z "},"F":{"ha":901,"x_min":-163,"x_max":880,"o":"m 41 0 l 41 688 l -163 688 l -163 979 l 880 979 l 880 688 l 359 688 l 359 575 l 696 575 l 696 404 l 359 404 l 359 0 l 41 0 z "},"G":{"ha":977,"x_min":7,"x_max":977,"o":"m 679 292 l 679 490 l 977 490 l 977 0 l 555 0 q 276 57 401 0 q 79 227 151 113 q 7 504 7 340 q 50 710 7 619 q 169 860 93 800 q 323 957 245 920 q 553 1001 401 993 q 793 963 711 993 q 960 854 876 933 l 768 640 q 681 699 719 681 q 556 722 643 716 q 433 685 472 711 q 363 618 393 659 q 326 494 334 578 q 363 376 334 410 q 438 320 393 342 q 534 293 483 298 q 679 292 586 288 z "},"H":{"ha":948,"x_min":-176,"x_max":921,"o":"m 602 642 l 602 979 l 921 979 l 921 0 l 602 0 l 602 353 l 346 353 l 346 0 l 27 0 l 27 688 l -176 688 l -176 979 l 346 979 l 346 642 l 602 642 z "},"J":{"ha":1264,"x_min":35,"x_max":1225,"o":"m 347 1674 l 537 1694 l 547 1660 l 463 1598 l 410 1594 l 374 1215 q 471 1361 415 1322 q 602 1410 527 1400 q 754 1412 676 1421 q 872 1376 831 1402 q 940 1292 912 1350 q 976 1172 968 1234 l 985 1152 l 988 1057 l 1029 724 l 887 646 l 890 634 l 905 621 q 1073 616 1063 661 l 1133 606 q 1133 547 1168 564 l 407 527 l 165 496 q 256 585 126 524 l 413 598 l 389 624 l 380 649 l 399 680 l 403 692 l 332 726 l 361 1057 l 361 1142 q 332 1177 341 1147 l 374 1591 l 341 1606 l 330 1650 l 347 1674 m 751 1143 l 751 1055 l 755 1044 l 753 617 l 793 614 l 795 1074 l 803 1074 l 803 1138 l 751 1143 m 557 1148 l 539 1097 l 588 1086 l 597 1145 l 557 1148 m 481 1101 l 488 1147 l 473 1148 l 463 1101 l 481 1101 m 403 1113 l 407 1113 l 412 1132 l 376 1135 l 376 1115 l 403 1113 m 878 1133 l 868 1078 l 888 1078 l 906 1129 l 878 1133 m 909 1080 l 945 1078 l 962 1102 l 965 1124 l 926 1133 l 909 1080 m 369 1098 l 537 1080 l 644 1059 l 637 684 l 627 782 q 603 931 615 890 q 563 1003 591 972 q 507 1048 534 1034 q 448 1064 479 1063 q 376 1068 417 1066 l 369 1098 m 815 1057 l 962 1078 l 966 1041 q 917 1023 934 1031 q 886 995 899 1015 q 856 932 873 975 q 825 765 840 890 l 813 655 l 815 1057 m 359 1108 l 366 1059 q 432 1058 397 1060 q 497 1041 467 1057 q 554 995 527 1025 q 593 929 581 965 q 631 656 605 892 l 644 650 l 652 1067 l 537 1088 l 359 1108 m 806 1066 l 806 618 l 817 620 q 865 928 844 876 q 900 998 886 981 q 937 1023 913 1015 q 973 1032 960 1032 l 973 1085 l 806 1066 m 631 616 q 604 723 613 684 q 581 807 594 762 q 546 897 568 852 q 477 958 524 942 q 409 930 428 954 q 374 866 391 907 q 340 731 358 825 l 631 616 m 983 713 q 947 905 964 857 q 911 946 930 954 q 870 901 881 926 q 855 853 859 877 q 840 756 850 830 l 832 672 l 827 623 l 983 706 l 983 713 m 374 1160 l 369 1152 l 378 1139 l 438 1148 l 504 1154 l 594 1156 l 743 1149 l 842 1139 l 944 1138 l 977 1124 l 974 1158 q 885 1182 932 1175 q 768 1194 838 1189 q 630 1197 699 1198 q 504 1193 562 1195 q 374 1160 447 1190 m 388 1162 q 546 1183 459 1181 q 677 1185 633 1185 q 781 1183 722 1185 q 886 1173 840 1181 q 972 1151 932 1166 l 974 1132 l 932 1142 l 797 1152 l 698 1157 l 578 1160 l 490 1158 l 420 1152 l 378 1145 l 374 1151 l 388 1162 m 575 1374 q 692 1364 650 1366 q 775 1359 733 1362 q 826 1361 817 1356 q 829 1374 834 1366 q 807 1390 825 1382 q 753 1401 790 1397 q 685 1404 715 1404 q 630 1401 654 1404 q 575 1374 605 1397 m 821 1349 q 847 1304 828 1314 q 878 1292 865 1295 q 898 1299 890 1289 q 899 1321 906 1308 q 879 1343 892 1334 q 854 1354 865 1353 q 821 1349 844 1356 m 845 1352 q 876 1341 863 1351 q 896 1320 890 1332 q 898 1304 903 1308 q 887 1303 893 1301 q 870 1308 880 1305 q 849 1320 860 1310 q 835 1338 838 1330 q 845 1352 832 1347 m 386 1594 l 359 1295 l 395 1594 l 386 1594 m 267 553 q 172 527 193 538 q 160 509 151 516 q 186 505 169 503 q 222 519 203 507 q 267 553 240 530 m 1139 570 q 1108 594 1129 595 q 1071 583 1088 593 q 1023 568 1055 572 q 969 558 992 564 q 1008 556 946 552 q 1139 570 1071 561 m 274 454 q 245 368 288 382 l 274 353 q 358 483 302 468 q 513 425 498 483 q 443 266 541 309 l 358 266 l 288 338 q 92 266 274 252 l 77 411 l 35 411 l 35 483 q 274 454 274 497 m 147 396 l 203 396 l 203 425 l 147 425 l 147 396 m 147 309 l 217 324 l 203 353 l 147 353 l 147 309 m 387 309 l 443 324 l 429 425 l 358 411 q 387 309 343 338 m 527 483 q 724 454 711 497 q 696 368 739 382 q 739 324 739 382 l 795 483 l 894 483 l 949 309 l 949 266 l 808 309 l 780 266 l 711 294 q 527 266 654 252 l 527 483 m 597 396 l 654 396 l 654 425 l 597 425 l 597 396 m 597 309 l 668 324 l 654 353 l 597 353 l 597 309 m 823 353 l 865 353 l 851 425 l 823 396 l 823 353 m 208 231 l 406 231 l 406 159 l 307 144 l 378 144 l 378 102 l 322 102 l 294 15 l 237 28 l 208 159 l 208 231 m 646 174 q 575 15 673 58 q 420 87 435 15 q 490 231 392 159 q 646 174 631 231 m 518 58 l 575 73 l 562 174 l 490 159 q 518 58 477 87 m 661 233 q 774 176 718 262 q 803 233 774 233 l 1027 233 l 1027 161 l 971 161 l 971 90 l 1098 90 q 1070 233 1000 191 l 1211 233 l 1211 176 l 1141 146 q 1141 16 1225 60 l 916 16 l 901 146 l 844 161 l 831 16 l 787 16 l 718 90 l 718 16 l 661 16 l 661 233 z "},"K":{"ha":952,"x_min":41,"x_max":1223,"o":"m 359 979 l 359 661 l 583 979 l 902 979 l 537 490 l 700 292 l 1223 292 l 1223 0 l 606 0 l 359 292 l 359 0 l 41 0 l 41 979 l 359 979 z "},"L":{"ha":890,"x_min":-163,"x_max":890,"o":"m 41 0 l 41 688 l -163 688 l -163 979 l 359 979 l 359 292 l 890 292 l 890 0 l 41 0 z "},":":{"ha":514,"x_min":106,"x_max":408,"o":"m 106 0 l 106 269 l 408 269 l 408 0 l 106 0 m 106 461 l 106 730 l 408 730 l 408 461 l 106 461 z "},"\"":{"ha":772,"x_min":134,"x_max":639,"o":"m 431 551 l 431 979 l 639 979 l 639 551 l 431 551 m 134 551 l 134 979 l 342 979 l 342 551 l 134 551 z "},"Z":{"ha":1027,"x_min":-68,"x_max":1081,"o":"m 372 374 l 642 374 l 501 762 l 372 374 m 842 688 l 1067 0 l 716 0 l 654 176 l 363 176 l 302 0 l -68 0 l 259 979 l 1081 979 l 1081 688 l 842 688 z "},"X":{"ha":1051,"x_min":0,"x_max":1092,"o":"m 382 688 l 0 688 l 0 979 l 678 979 q 872 917 796 968 q 983 779 948 865 q 986 578 1010 648 q 901 460 962 507 q 726 385 840 412 l 799 292 l 1092 292 l 1092 0 l 705 0 l 395 323 l 395 0 l 41 0 l 41 586 l 642 586 q 684 595 661 586 q 709 635 707 604 q 681 677 705 667 q 641 687 657 687 l 382 688 z "},"C":{"ha":977,"x_min":7,"x_max":960,"o":"m 324 500 q 359 378 330 419 q 431 314 389 338 q 556 279 472 290 q 681 302 643 285 q 768 361 719 320 l 960 146 q 793 38 876 68 q 553 0 711 8 q 323 44 401 8 q 169 141 245 81 q 50 291 93 201 q 7 501 7 382 q 50 710 7 619 q 169 860 93 800 q 323 957 245 920 q 553 1001 401 993 q 793 963 711 993 q 960 854 876 933 l 768 640 q 681 699 719 681 q 556 722 643 716 q 431 687 472 711 q 359 623 389 663 q 324 500 330 582 z "},"V":{"ha":1264,"x_min":35,"x_max":1225,"o":"m 347 1674 l 537 1694 l 547 1660 l 463 1598 l 410 1594 l 374 1215 q 471 1361 415 1322 q 602 1410 527 1400 q 754 1412 676 1421 q 872 1376 831 1402 q 940 1292 912 1350 q 976 1172 968 1234 l 985 1152 l 988 1057 l 1029 724 l 887 646 l 890 634 l 905 621 q 1073 616 1063 661 l 1133 606 q 1133 547 1168 564 l 407 527 l 165 496 q 256 585 126 524 l 413 598 l 389 624 l 380 649 l 399 680 l 403 692 l 332 726 l 361 1057 l 361 1142 q 332 1177 341 1147 l 374 1591 l 341 1606 l 330 1650 l 347 1674 m 751 1143 l 751 1055 l 755 1044 l 753 617 l 793 614 l 795 1074 l 803 1074 l 803 1138 l 751 1143 m 557 1148 l 539 1097 l 588 1086 l 597 1145 l 557 1148 m 481 1101 l 488 1147 l 473 1148 l 463 1101 l 481 1101 m 403 1113 l 407 1113 l 412 1132 l 376 1135 l 376 1115 l 403 1113 m 878 1133 l 868 1078 l 888 1078 l 906 1129 l 878 1133 m 909 1080 l 945 1078 l 962 1102 l 965 1124 l 926 1133 l 909 1080 m 369 1098 l 537 1080 l 644 1059 l 637 684 l 627 782 q 603 931 615 890 q 563 1003 591 972 q 507 1048 534 1034 q 448 1064 479 1063 q 376 1068 417 1066 l 369 1098 m 815 1057 l 962 1078 l 966 1041 q 917 1023 934 1031 q 886 995 899 1015 q 856 932 873 975 q 825 765 840 890 l 813 655 l 815 1057 m 359 1108 l 366 1059 q 432 1058 397 1060 q 497 1041 467 1057 q 554 995 527 1025 q 593 929 581 965 q 631 656 605 892 l 644 650 l 652 1067 l 537 1088 l 359 1108 m 806 1066 l 806 618 l 817 620 q 865 928 844 876 q 900 998 886 981 q 937 1023 913 1015 q 973 1032 960 1032 l 973 1085 l 806 1066 m 631 616 q 604 723 613 684 q 581 807 594 762 q 546 897 568 852 q 477 958 524 942 q 409 930 428 954 q 374 866 391 907 q 340 731 358 825 l 631 616 m 983 713 q 947 905 964 857 q 911 946 930 954 q 870 901 881 926 q 855 853 859 877 q 840 756 850 830 l 832 672 l 827 623 l 983 706 l 983 713 m 374 1160 l 369 1152 l 378 1139 l 438 1148 l 504 1154 l 594 1156 l 743 1149 l 842 1139 l 944 1138 l 977 1124 l 974 1158 q 885 1182 932 1175 q 768 1194 838 1189 q 630 1197 699 1198 q 504 1193 562 1195 q 374 1160 447 1190 m 388 1162 q 546 1183 459 1181 q 677 1185 633 1185 q 781 1183 722 1185 q 886 1173 840 1181 q 972 1151 932 1166 l 974 1132 l 932 1142 l 797 1152 l 698 1157 l 578 1160 l 490 1158 l 420 1152 l 378 1145 l 374 1151 l 388 1162 m 575 1374 q 692 1364 650 1366 q 775 1359 733 1362 q 826 1361 817 1356 q 829 1374 834 1366 q 807 1390 825 1382 q 753 1401 790 1397 q 685 1404 715 1404 q 630 1401 654 1404 q 575 1374 605 1397 m 821 1349 q 847 1304 828 1314 q 878 1292 865 1295 q 898 1299 890 1289 q 899 1321 906 1308 q 879 1343 892 1334 q 854 1354 865 1353 q 821 1349 844 1356 m 845 1352 q 876 1341 863 1351 q 896 1320 890 1332 q 898 1304 903 1308 q 887 1303 893 1301 q 870 1308 880 1305 q 849 1320 860 1310 q 835 1338 838 1330 q 845 1352 832 1347 m 386 1594 l 359 1295 l 395 1594 l 386 1594 m 267 553 q 172 527 193 538 q 160 509 151 516 q 186 505 169 503 q 222 519 203 507 q 267 553 240 530 m 1139 570 q 1108 594 1129 595 q 1071 583 1088 593 q 1023 568 1055 572 q 969 558 992 564 q 1008 556 946 552 q 1139 570 1071 561 m 274 454 q 245 368 288 382 l 274 353 q 358 483 302 468 q 513 425 498 483 q 443 266 541 309 l 358 266 l 288 338 q 92 266 274 252 l 77 411 l 35 411 l 35 483 q 274 454 274 497 m 147 396 l 203 396 l 203 425 l 147 425 l 147 396 m 147 309 l 217 324 l 203 353 l 147 353 l 147 309 m 387 309 l 443 324 l 429 425 l 358 411 q 387 309 343 338 m 527 483 q 724 454 711 497 q 696 368 739 382 q 739 324 739 382 l 795 483 l 894 483 l 949 309 l 949 266 l 808 309 l 780 266 l 711 294 q 527 266 654 252 l 527 483 m 597 396 l 654 396 l 654 425 l 597 425 l 597 396 m 597 309 l 668 324 l 654 353 l 597 353 l 597 309 m 823 353 l 865 353 l 851 425 l 823 396 l 823 353 m 208 231 l 406 231 l 406 159 l 307 144 l 378 144 l 378 102 l 322 102 l 294 15 l 237 28 l 208 159 l 208 231 m 646 174 q 575 15 673 58 q 420 87 435 15 q 490 231 392 159 q 646 174 631 231 m 518 58 l 575 73 l 562 174 l 490 159 q 518 58 477 87 m 661 233 q 774 176 718 262 q 803 233 774 233 l 1027 233 l 1027 161 l 971 161 l 971 90 l 1098 90 q 1070 233 1000 191 l 1211 233 l 1211 176 l 1141 146 q 1141 16 1225 60 l 916 16 l 901 146 l 844 161 l 831 16 l 787 16 l 718 90 l 718 16 l 661 16 l 661 233 z "},"B":{"ha":1104,"x_min":-163,"x_max":1097,"o":"m 41 0 l 41 688 l -163 688 l -163 979 l 709 979 q 953 924 869 978 q 1055 742 1037 869 q 1013 589 1061 644 q 857 497 966 533 l 857 494 q 956 466 910 488 q 1032 413 1001 444 q 1080 345 1063 383 q 1097 271 1097 307 q 1037 95 1097 155 q 885 17 978 35 q 659 0 791 -1 l 41 0 m 378 379 l 378 198 l 596 198 q 694 222 652 196 q 736 288 736 249 q 702 355 741 330 q 596 379 664 379 l 378 379 m 378 742 l 378 593 l 616 593 q 657 614 635 593 q 680 669 679 635 q 654 726 677 709 q 615 742 631 742 l 378 742 z "},"N":{"ha":970,"x_min":41,"x_max":1241,"o":"m 41 0 l 41 979 l 359 979 l 651 613 l 651 979 l 1241 979 l 1241 688 l 970 688 l 970 0 l 651 0 l 359 366 l 359 0 l 41 0 z "},"M":{"ha":1119,"x_min":-176,"x_max":1092,"o":"m 27 0 l 27 688 l -176 688 l -176 979 l 346 979 l 560 572 l 773 979 l 1092 979 l 1092 0 l 773 0 l 773 407 l 568 0 l 551 0 l 346 407 l 346 0 l 27 0 z "},"<":{"ha":1264,"x_min":35,"x_max":1225,"o":"m 347 1674 l 537 1694 l 547 1660 l 463 1598 l 410 1594 l 374 1215 q 471 1361 415 1322 q 602 1410 527 1400 q 754 1412 676 1421 q 872 1376 831 1402 q 940 1292 912 1350 q 976 1172 968 1234 l 985 1152 l 988 1057 l 1029 724 l 887 646 l 890 634 l 905 621 q 1073 616 1063 661 l 1133 606 q 1133 547 1168 564 l 407 527 l 165 496 q 256 585 126 524 l 413 598 l 389 624 l 380 649 l 399 680 l 403 692 l 332 726 l 361 1057 l 361 1142 q 332 1177 341 1147 l 374 1591 l 341 1606 l 330 1650 l 347 1674 m 751 1143 l 751 1055 l 755 1044 l 753 617 l 793 614 l 795 1074 l 803 1074 l 803 1138 l 751 1143 m 557 1148 l 539 1097 l 588 1086 l 597 1145 l 557 1148 m 481 1101 l 488 1147 l 473 1148 l 463 1101 l 481 1101 m 403 1113 l 407 1113 l 412 1132 l 376 1135 l 376 1115 l 403 1113 m 878 1133 l 868 1078 l 888 1078 l 906 1129 l 878 1133 m 909 1080 l 945 1078 l 962 1102 l 965 1124 l 926 1133 l 909 1080 m 369 1098 l 537 1080 l 644 1059 l 637 684 l 627 782 q 603 931 615 890 q 563 1003 591 972 q 507 1048 534 1034 q 448 1064 479 1063 q 376 1068 417 1066 l 369 1098 m 815 1057 l 962 1078 l 966 1041 q 917 1023 934 1031 q 886 995 899 1015 q 856 932 873 975 q 825 765 840 890 l 813 655 l 815 1057 m 359 1108 l 366 1059 q 432 1058 397 1060 q 497 1041 467 1057 q 554 995 527 1025 q 593 929 581 965 q 631 656 605 892 l 644 650 l 652 1067 l 537 1088 l 359 1108 m 806 1066 l 806 618 l 817 620 q 865 928 844 876 q 900 998 886 981 q 937 1023 913 1015 q 973 1032 960 1032 l 973 1085 l 806 1066 m 631 616 q 604 723 613 684 q 581 807 594 762 q 546 897 568 852 q 477 958 524 942 q 409 930 428 954 q 374 866 391 907 q 340 731 358 825 l 631 616 m 983 713 q 947 905 964 857 q 911 946 930 954 q 870 901 881 926 q 855 853 859 877 q 840 756 850 830 l 832 672 l 827 623 l 983 706 l 983 713 m 374 1160 l 369 1152 l 378 1139 l 438 1148 l 504 1154 l 594 1156 l 743 1149 l 842 1139 l 944 1138 l 977 1124 l 974 1158 q 885 1182 932 1175 q 768 1194 838 1189 q 630 1197 699 1198 q 504 1193 562 1195 q 374 1160 447 1190 m 388 1162 q 546 1183 459 1181 q 677 1185 633 1185 q 781 1183 722 1185 q 886 1173 840 1181 q 972 1151 932 1166 l 974 1132 l 932 1142 l 797 1152 l 698 1157 l 578 1160 l 490 1158 l 420 1152 l 378 1145 l 374 1151 l 388 1162 m 575 1374 q 692 1364 650 1366 q 775 1359 733 1362 q 826 1361 817 1356 q 829 1374 834 1366 q 807 1390 825 1382 q 753 1401 790 1397 q 685 1404 715 1404 q 630 1401 654 1404 q 575 1374 605 1397 m 821 1349 q 847 1304 828 1314 q 878 1292 865 1295 q 898 1299 890 1289 q 899 1321 906 1308 q 879 1343 892 1334 q 854 1354 865 1353 q 821 1349 844 1356 m 845 1352 q 876 1341 863 1351 q 896 1320 890 1332 q 898 1304 903 1308 q 887 1303 893 1301 q 870 1308 880 1305 q 849 1320 860 1310 q 835 1338 838 1330 q 845 1352 832 1347 m 386 1594 l 359 1295 l 395 1594 l 386 1594 m 267 553 q 172 527 193 538 q 160 509 151 516 q 186 505 169 503 q 222 519 203 507 q 267 553 240 530 m 1139 570 q 1108 594 1129 595 q 1071 583 1088 593 q 1023 568 1055 572 q 969 558 992 564 q 1008 556 946 552 q 1139 570 1071 561 m 274 454 q 245 368 288 382 l 274 353 q 358 483 302 468 q 513 425 498 483 q 443 266 541 309 l 358 266 l 288 338 q 92 266 274 252 l 77 411 l 35 411 l 35 483 q 274 454 274 497 m 147 396 l 203 396 l 203 425 l 147 425 l 147 396 m 147 309 l 217 324 l 203 353 l 147 353 l 147 309 m 387 309 l 443 324 l 429 425 l 358 411 q 387 309 343 338 m 527 483 q 724 454 711 497 q 696 368 739 382 q 739 324 739 382 l 795 483 l 894 483 l 949 309 l 949 266 l 808 309 l 780 266 l 711 294 q 527 266 654 252 l 527 483 m 597 396 l 654 396 l 654 425 l 597 425 l 597 396 m 597 309 l 668 324 l 654 353 l 597 353 l 597 309 m 823 353 l 865 353 l 851 425 l 823 396 l 823 353 m 208 231 l 406 231 l 406 159 l 307 144 l 378 144 l 378 102 l 322 102 l 294 15 l 237 28 l 208 159 l 208 231 m 646 174 q 575 15 673 58 q 420 87 435 15 q 490 231 392 159 q 646 174 631 231 m 518 58 l 575 73 l 562 174 l 490 159 q 518 58 477 87 m 661 233 q 774 176 718 262 q 803 233 774 233 l 1027 233 l 1027 161 l 971 161 l 971 90 l 1098 90 q 1070 233 1000 191 l 1211 233 l 1211 176 l 1141 146 q 1141 16 1225 60 l 916 16 l 901 146 l 844 161 l 831 16 l 787 16 l 718 90 l 718 16 l 661 16 l 661 233 z "},">":{"ha":1264,"x_min":35,"x_max":1225,"o":"m 347 1674 l 537 1694 l 547 1660 l 463 1598 l 410 1594 l 374 1215 q 471 1361 415 1322 q 602 1410 527 1400 q 754 1412 676 1421 q 872 1376 831 1402 q 940 1292 912 1350 q 976 1172 968 1234 l 985 1152 l 988 1057 l 1029 724 l 887 646 l 890 634 l 905 621 q 1073 616 1063 661 l 1133 606 q 1133 547 1168 564 l 407 527 l 165 496 q 256 585 126 524 l 413 598 l 389 624 l 380 649 l 399 680 l 403 692 l 332 726 l 361 1057 l 361 1142 q 332 1177 341 1147 l 374 1591 l 341 1606 l 330 1650 l 347 1674 m 751 1143 l 751 1055 l 755 1044 l 753 617 l 793 614 l 795 1074 l 803 1074 l 803 1138 l 751 1143 m 557 1148 l 539 1097 l 588 1086 l 597 1145 l 557 1148 m 481 1101 l 488 1147 l 473 1148 l 463 1101 l 481 1101 m 403 1113 l 407 1113 l 412 1132 l 376 1135 l 376 1115 l 403 1113 m 878 1133 l 868 1078 l 888 1078 l 906 1129 l 878 1133 m 909 1080 l 945 1078 l 962 1102 l 965 1124 l 926 1133 l 909 1080 m 369 1098 l 537 1080 l 644 1059 l 637 684 l 627 782 q 603 931 615 890 q 563 1003 591 972 q 507 1048 534 1034 q 448 1064 479 1063 q 376 1068 417 1066 l 369 1098 m 815 1057 l 962 1078 l 966 1041 q 917 1023 934 1031 q 886 995 899 1015 q 856 932 873 975 q 825 765 840 890 l 813 655 l 815 1057 m 359 1108 l 366 1059 q 432 1058 397 1060 q 497 1041 467 1057 q 554 995 527 1025 q 593 929 581 965 q 631 656 605 892 l 644 650 l 652 1067 l 537 1088 l 359 1108 m 806 1066 l 806 618 l 817 620 q 865 928 844 876 q 900 998 886 981 q 937 1023 913 1015 q 973 1032 960 1032 l 973 1085 l 806 1066 m 631 616 q 604 723 613 684 q 581 807 594 762 q 546 897 568 852 q 477 958 524 942 q 409 930 428 954 q 374 866 391 907 q 340 731 358 825 l 631 616 m 983 713 q 947 905 964 857 q 911 946 930 954 q 870 901 881 926 q 855 853 859 877 q 840 756 850 830 l 832 672 l 827 623 l 983 706 l 983 713 m 374 1160 l 369 1152 l 378 1139 l 438 1148 l 504 1154 l 594 1156 l 743 1149 l 842 1139 l 944 1138 l 977 1124 l 974 1158 q 885 1182 932 1175 q 768 1194 838 1189 q 630 1197 699 1198 q 504 1193 562 1195 q 374 1160 447 1190 m 388 1162 q 546 1183 459 1181 q 677 1185 633 1185 q 781 1183 722 1185 q 886 1173 840 1181 q 972 1151 932 1166 l 974 1132 l 932 1142 l 797 1152 l 698 1157 l 578 1160 l 490 1158 l 420 1152 l 378 1145 l 374 1151 l 388 1162 m 575 1374 q 692 1364 650 1366 q 775 1359 733 1362 q 826 1361 817 1356 q 829 1374 834 1366 q 807 1390 825 1382 q 753 1401 790 1397 q 685 1404 715 1404 q 630 1401 654 1404 q 575 1374 605 1397 m 821 1349 q 847 1304 828 1314 q 878 1292 865 1295 q 898 1299 890 1289 q 899 1321 906 1308 q 879 1343 892 1334 q 854 1354 865 1353 q 821 1349 844 1356 m 845 1352 q 876 1341 863 1351 q 896 1320 890 1332 q 898 1304 903 1308 q 887 1303 893 1301 q 870 1308 880 1305 q 849 1320 860 1310 q 835 1338 838 1330 q 845 1352 832 1347 m 386 1594 l 359 1295 l 395 1594 l 386 1594 m 267 553 q 172 527 193 538 q 160 509 151 516 q 186 505 169 503 q 222 519 203 507 q 267 553 240 530 m 1139 570 q 1108 594 1129 595 q 1071 583 1088 593 q 1023 568 1055 572 q 969 558 992 564 q 1008 556 946 552 q 1139 570 1071 561 m 274 454 q 245 368 288 382 l 274 353 q 358 483 302 468 q 513 425 498 483 q 443 266 541 309 l 358 266 l 288 338 q 92 266 274 252 l 77 411 l 35 411 l 35 483 q 274 454 274 497 m 147 396 l 203 396 l 203 425 l 147 425 l 147 396 m 147 309 l 217 324 l 203 353 l 147 353 l 147 309 m 387 309 l 443 324 l 429 425 l 358 411 q 387 309 343 338 m 527 483 q 724 454 711 497 q 696 368 739 382 q 739 324 739 382 l 795 483 l 894 483 l 949 309 l 949 266 l 808 309 l 780 266 l 711 294 q 527 266 654 252 l 527 483 m 597 396 l 654 396 l 654 425 l 597 425 l 597 396 m 597 309 l 668 324 l 654 353 l 597 353 l 597 309 m 823 353 l 865 353 l 851 425 l 823 396 l 823 353 m 208 231 l 406 231 l 406 159 l 307 144 l 378 144 l 378 102 l 322 102 l 294 15 l 237 28 l 208 159 l 208 231 m 646 174 q 575 15 673 58 q 420 87 435 15 q 490 231 392 159 q 646 174 631 231 m 518 58 l 575 73 l 562 174 l 490 159 q 518 58 477 87 m 661 233 q 774 176 718 262 q 803 233 774 233 l 1027 233 l 1027 161 l 971 161 l 971 90 l 1098 90 q 1070 233 1000 191 l 1211 233 l 1211 176 l 1141 146 q 1141 16 1225 60 l 916 16 l 901 146 l 844 161 l 831 16 l 787 16 l 718 90 l 718 16 l 661 16 l 661 233 z "},"?":{"ha":798,"x_min":57,"x_max":741,"o":"m 482 363 l 204 363 q 236 511 210 460 q 297 588 262 562 q 360 636 331 613 q 390 694 390 659 q 355 741 390 730 q 253 751 319 751 q 151 738 206 751 q 57 705 96 724 l 57 945 q 207 983 137 970 q 359 996 277 996 q 529 976 442 996 q 678 904 616 957 q 741 760 741 851 q 708 643 741 689 q 608 542 675 596 q 512 452 541 488 q 482 363 482 417 m 192 261 l 494 261 l 494 0 l 192 0 l 192 261 z "},"":{"ha":1264,"x_min":35,"x_max":1225,"o":"m 347 1674 l 537 1694 l 547 1660 l 463 1598 l 410 1594 l 374 1215 q 471 1361 415 1322 q 602 1410 527 1400 q 754 1412 676 1421 q 872 1376 831 1402 q 940 1292 912 1350 q 976 1172 968 1234 l 985 1152 l 988 1057 l 1029 724 l 887 646 l 890 634 l 905 621 q 1073 616 1063 661 l 1133 606 q 1133 547 1168 564 l 407 527 l 165 496 q 256 585 126 524 l 413 598 l 389 624 l 380 649 l 399 680 l 403 692 l 332 726 l 361 1057 l 361 1142 q 332 1177 341 1147 l 374 1591 l 341 1606 l 330 1650 l 347 1674 m 751 1143 l 751 1055 l 755 1044 l 753 617 l 793 614 l 795 1074 l 803 1074 l 803 1138 l 751 1143 m 557 1148 l 539 1097 l 588 1086 l 597 1145 l 557 1148 m 481 1101 l 488 1147 l 473 1148 l 463 1101 l 481 1101 m 403 1113 l 407 1113 l 412 1132 l 376 1135 l 376 1115 l 403 1113 m 878 1133 l 868 1078 l 888 1078 l 906 1129 l 878 1133 m 909 1080 l 945 1078 l 962 1102 l 965 1124 l 926 1133 l 909 1080 m 369 1098 l 537 1080 l 644 1059 l 637 684 l 627 782 q 603 931 615 890 q 563 1003 591 972 q 507 1048 534 1034 q 448 1064 479 1063 q 376 1068 417 1066 l 369 1098 m 815 1057 l 962 1078 l 966 1041 q 917 1023 934 1031 q 886 995 899 1015 q 856 932 873 975 q 825 765 840 890 l 813 655 l 815 1057 m 359 1108 l 366 1059 q 432 1058 397 1060 q 497 1041 467 1057 q 554 995 527 1025 q 593 929 581 965 q 631 656 605 892 l 644 650 l 652 1067 l 537 1088 l 359 1108 m 806 1066 l 806 618 l 817 620 q 865 928 844 876 q 900 998 886 981 q 937 1023 913 1015 q 973 1032 960 1032 l 973 1085 l 806 1066 m 631 616 q 604 723 613 684 q 581 807 594 762 q 546 897 568 852 q 477 958 524 942 q 409 930 428 954 q 374 866 391 907 q 340 731 358 825 l 631 616 m 983 713 q 947 905 964 857 q 911 946 930 954 q 870 901 881 926 q 855 853 859 877 q 840 756 850 830 l 832 672 l 827 623 l 983 706 l 983 713 m 374 1160 l 369 1152 l 378 1139 l 438 1148 l 504 1154 l 594 1156 l 743 1149 l 842 1139 l 944 1138 l 977 1124 l 974 1158 q 885 1182 932 1175 q 768 1194 838 1189 q 630 1197 699 1198 q 504 1193 562 1195 q 374 1160 447 1190 m 388 1162 q 546 1183 459 1181 q 677 1185 633 1185 q 781 1183 722 1185 q 886 1173 840 1181 q 972 1151 932 1166 l 974 1132 l 932 1142 l 797 1152 l 698 1157 l 578 1160 l 490 1158 l 420 1152 l 378 1145 l 374 1151 l 388 1162 m 575 1374 q 692 1364 650 1366 q 775 1359 733 1362 q 826 1361 817 1356 q 829 1374 834 1366 q 807 1390 825 1382 q 753 1401 790 1397 q 685 1404 715 1404 q 630 1401 654 1404 q 575 1374 605 1397 m 821 1349 q 847 1304 828 1314 q 878 1292 865 1295 q 898 1299 890 1289 q 899 1321 906 1308 q 879 1343 892 1334 q 854 1354 865 1353 q 821 1349 844 1356 m 845 1352 q 876 1341 863 1351 q 896 1320 890 1332 q 898 1304 903 1308 q 887 1303 893 1301 q 870 1308 880 1305 q 849 1320 860 1310 q 835 1338 838 1330 q 845 1352 832 1347 m 386 1594 l 359 1295 l 395 1594 l 386 1594 m 267 553 q 172 527 193 538 q 160 509 151 516 q 186 505 169 503 q 222 519 203 507 q 267 553 240 530 m 1139 570 q 1108 594 1129 595 q 1071 583 1088 593 q 1023 568 1055 572 q 969 558 992 564 q 1008 556 946 552 q 1139 570 1071 561 m 274 454 q 245 368 288 382 l 274 353 q 358 483 302 468 q 513 425 498 483 q 443 266 541 309 l 358 266 l 288 338 q 92 266 274 252 l 77 411 l 35 411 l 35 483 q 274 454 274 497 m 147 396 l 203 396 l 203 425 l 147 425 l 147 396 m 147 309 l 217 324 l 203 353 l 147 353 l 147 309 m 387 309 l 443 324 l 429 425 l 358 411 q 387 309 343 338 m 527 483 q 724 454 711 497 q 696 368 739 382 q 739 324 739 382 l 795 483 l 894 483 l 949 309 l 949 266 l 808 309 l 780 266 l 711 294 q 527 266 654 252 l 527 483 m 597 396 l 654 396 l 654 425 l 597 425 l 597 396 m 597 309 l 668 324 l 654 353 l 597 353 l 597 309 m 823 353 l 865 353 l 851 425 l 823 396 l 823 353 m 208 231 l 406 231 l 406 159 l 307 144 l 378 144 l 378 102 l 322 102 l 294 15 l 237 28 l 208 159 l 208 231 m 646 174 q 575 15 673 58 q 420 87 435 15 q 490 231 392 159 q 646 174 631 231 m 518 58 l 575 73 l 562 174 l 490 159 q 518 58 477 87 m 661 233 q 774 176 718 262 q 803 233 774 233 l 1027 233 l 1027 161 l 971 161 l 971 90 l 1098 90 q 1070 233 1000 191 l 1211 233 l 1211 176 l 1141 146 q 1141 16 1225 60 l 916 16 l 901 146 l 844 161 l 831 16 l 787 16 l 718 90 l 718 16 l 661 16 l 661 233 z "},"":{"ha":439,"x_min":115,"x_max":323,"o":"m 321 553 m 323 552 l 115 765 l 115 979 l 323 979 l 323 552 z "},"":{"ha":439,"x_min":114,"x_max":323,"o":"m 114 553 m 115 551 l 115 979 l 323 979 l 323 766 l 115 551 z "},"":{"ha":772,"x_min":134,"x_max":639,"o":"m 637 553 m 340 553 m 342 552 l 134 765 l 134 979 l 342 979 l 342 552 m 639 552 l 431 765 l 431 979 l 639 979 l 639 552 z "},"":{"ha":772,"x_min":132,"x_max":639,"o":"m 429 553 m 132 553 m 134 551 l 134 979 l 342 979 l 342 766 l 134 551 m 431 551 l 431 979 l 639 979 l 639 766 l 431 551 z "},"":{"ha":1118,"x_min":7,"x_max":1118,"o":"m 802 324 l 671 324 l 671 496 l 1118 496 l 1118 0 l 882 0 l 882 80 q 820 26 859 47 q 718 -6 781 5 q 587 -17 654 -17 q 364 15 469 -19 q 180 114 260 49 q 53 257 100 179 q 7 504 7 334 q 53 716 7 623 q 179 872 98 810 q 365 965 260 934 q 587 996 469 996 q 801 958 691 993 q 972 861 911 922 q 1061 731 1033 800 q 1099 627 1090 662 l 804 627 q 707 730 753 711 q 607 749 661 749 q 507 731 553 749 q 433 684 460 713 q 385 612 406 654 q 360 486 363 570 q 394 345 360 396 q 470 269 428 293 q 581 237 512 244 q 703 248 649 231 q 802 324 756 264 z "},"":{"ha":1119,"x_min":7,"x_max":1113,"o":"m 776 358 l 1113 358 q 1029 212 1109 326 q 840 42 949 98 q 587 -17 732 -14 q 292 41 424 -17 q 83 217 159 100 q 7 504 7 334 q 53 716 7 623 q 179 872 98 810 q 365 965 260 934 q 587 996 469 996 q 786 966 694 996 q 951 871 878 936 q 1067 718 1025 806 q 1113 597 1109 629 l 776 597 q 734 695 765 665 q 681 736 704 726 q 610 746 659 746 q 511 730 561 746 q 433 684 460 713 q 390 617 406 654 q 366 486 374 581 q 409 339 374 391 q 496 263 444 288 q 597 236 547 239 q 673 241 648 233 q 732 275 699 250 q 776 358 766 300 z "},"":{"ha":1027,"x_min":-54,"x_max":1082,"o":"m -54 0 l 268 979 l 754 979 l 1082 0 l 711 0 l 650 176 l 359 176 l 297 0 l -54 0 m 512 762 l 372 374 l 642 374 l 512 762 m 138 1218 l 451 1218 l 570 1002 l 138 1218 z "},"":{"ha":1027,"x_min":-54,"x_max":1082,"o":"m -54 0 l 268 979 l 754 979 l 1082 0 l 711 0 l 650 176 l 359 176 l 297 0 l -54 0 m 512 762 l 372 374 l 642 374 l 512 762 m 138 1218 l 451 1218 l 570 1002 l 138 1218 z "},"":{"ha":1027,"x_min":-54,"x_max":1082,"o":"m 456 1002 l 576 1218 l 889 1218 l 456 1002 m -54 0 l 268 979 l 754 979 l 1082 0 l 711 0 l 650 176 l 359 176 l 297 0 l -54 0 m 512 762 l 372 374 l 642 374 l 512 762 z "},"":{"ha":1027,"x_min":-54,"x_max":1082,"o":"m 456 1002 l 576 1218 l 889 1218 l 456 1002 m -54 0 l 268 979 l 754 979 l 1082 0 l 711 0 l 650 176 l 359 176 l 297 0 l -54 0 m 512 762 l 372 374 l 642 374 l 512 762 z "},"":{"ha":1027,"x_min":-54,"x_max":1082,"o":"m 699 998 l 511 1116 l 321 1000 l 321 1040 l 509 1232 l 699 1040 l 699 998 m -54 0 l 268 979 l 754 979 l 1082 0 l 711 0 l 650 176 l 359 176 l 297 0 l -54 0 m 512 762 l 372 374 l 642 374 l 512 762 z "},"":{"ha":1027,"x_min":-54,"x_max":1082,"o":"m -54 0 l 268 979 l 754 979 l 1082 0 l 711 0 l 650 176 l 359 176 l 297 0 l -54 0 m 512 762 l 372 374 l 642 374 l 512 762 m 699 998 l 511 1116 l 321 1000 l 321 1040 l 509 1232 l 699 1040 l 699 998 z "},"":{"ha":1027,"x_min":-54,"x_max":1082,"o":"m -54 0 l 268 979 l 754 979 l 1082 0 l 711 0 l 650 176 l 359 176 l 297 0 l -54 0 m 512 762 l 372 374 l 642 374 l 512 762 m 765 1109 q 488 1076 602 952 q 317 1086 374 1199 l 276 1118 q 494 1171 376 1301 q 713 1137 613 1042 l 765 1109 z "},"":{"ha":1027,"x_min":-54,"x_max":1082,"o":"m -54 0 l 268 979 l 754 979 l 1082 0 l 711 0 l 650 176 l 359 176 l 297 0 l -54 0 m 512 762 l 372 374 l 642 374 l 512 762 m 765 1109 q 488 1076 602 952 q 317 1086 374 1199 l 276 1118 q 494 1171 376 1301 q 713 1137 613 1042 l 765 1109 z "},"":{"ha":1027,"x_min":-54,"x_max":1082,"o":"m -54 0 l 268 979 l 754 979 l 1082 0 l 711 0 l 650 176 l 359 176 l 297 0 l -54 0 m 512 762 l 372 374 l 642 374 l 512 762 m 382 1196 q 438 1174 416 1196 q 460 1117 460 1151 q 434 1055 457 1076 q 378 1034 412 1034 q 323 1056 345 1034 q 300 1112 300 1078 q 323 1173 300 1150 q 382 1196 345 1196 m 638 1196 q 695 1174 673 1196 q 717 1117 717 1151 q 691 1055 713 1076 q 634 1034 668 1034 q 579 1056 602 1034 q 557 1112 557 1078 q 579 1173 557 1150 q 638 1196 602 1196 z "},"":{"ha":1027,"x_min":-54,"x_max":1082,"o":"m -54 0 l 268 979 l 754 979 l 1082 0 l 711 0 l 650 176 l 359 176 l 297 0 l -54 0 m 512 762 l 372 374 l 642 374 l 512 762 m 382 1196 q 438 1174 416 1196 q 460 1117 460 1151 q 434 1055 457 1076 q 378 1034 412 1034 q 323 1056 345 1034 q 300 1112 300 1078 q 323 1173 300 1150 q 382 1196 345 1196 m 638 1196 q 695 1174 673 1196 q 717 1117 717 1151 q 691 1055 713 1076 q 634 1034 668 1034 q 579 1056 602 1034 q 557 1112 557 1078 q 579 1173 557 1150 q 638 1196 602 1196 z "},"":{"ha":1027,"x_min":-54,"x_max":1082,"o":"m -54 0 l 268 979 l 754 979 l 1082 0 l 711 0 l 650 176 l 359 176 l 297 0 l -54 0 m 512 762 l 372 374 l 642 374 l 512 762 m 511 1251 q 605 1213 568 1251 q 642 1121 642 1176 q 601 1026 642 1065 q 505 986 561 986 q 415 1022 452 986 q 378 1114 378 1058 q 415 1213 378 1175 q 511 1251 452 1251 m 511 1199 q 452 1176 474 1199 q 429 1115 429 1153 q 452 1059 429 1081 q 507 1036 474 1036 q 563 1057 541 1036 q 589 1120 586 1078 q 567 1176 589 1154 q 511 1199 545 1199 z "},"":{"ha":1027,"x_min":-54,"x_max":1082,"o":"m -54 0 l 268 979 l 754 979 l 1082 0 l 711 0 l 650 176 l 359 176 l 297 0 l -54 0 m 512 762 l 372 374 l 642 374 l 512 762 m 511 1251 q 605 1213 568 1251 q 642 1121 642 1176 q 601 1026 642 1065 q 505 986 561 986 q 415 1022 452 986 q 378 1114 378 1058 q 415 1213 378 1175 q 511 1251 452 1251 m 511 1199 q 452 1176 474 1199 q 429 1115 429 1153 q 452 1059 429 1081 q 507 1036 474 1036 q 563 1057 541 1036 q 589 1120 586 1078 q 567 1176 589 1154 q 511 1199 545 1199 z "},"":{"ha":1398,"x_min":-54,"x_max":1439,"o":"m 513 761 l 372 374 l 513 374 l 513 761 m 513 0 l 513 176 l 359 176 l 297 0 l -54 0 l 268 979 l 1356 979 l 1356 688 l 836 688 l 836 575 l 1172 575 l 1172 404 l 836 404 l 836 292 l 1439 292 l 1439 0 l 513 0 z "},"":{"ha":1398,"x_min":-54,"x_max":1439,"o":"m 513 761 l 372 374 l 513 374 l 513 761 m 513 0 l 513 176 l 359 176 l 297 0 l -54 0 l 268 979 l 1356 979 l 1356 688 l 836 688 l 836 575 l 1172 575 l 1172 404 l 836 404 l 836 292 l 1439 292 l 1439 0 l 513 0 z "},"":{"ha":977,"x_min":7,"x_max":960,"o":"m 469 3 q 323 44 401 8 q 169 141 245 81 q 50 291 93 201 q 7 501 7 382 q 50 710 7 619 q 169 860 93 800 q 323 957 245 920 q 553 1001 401 993 q 793 963 711 993 q 960 854 876 933 l 768 640 q 681 699 719 681 q 556 722 643 716 q 431 687 472 711 q 359 623 389 663 q 324 500 330 582 q 359 378 330 419 q 431 314 389 338 q 556 279 472 290 q 681 302 643 285 q 768 361 719 320 l 960 146 q 793 38 876 68 q 609 1 711 8 l 469 3 m 494 269 l 494 153 q 513 155 506 155 q 555 141 538 155 q 572 109 572 127 q 556 67 572 82 q 498 52 541 52 q 454 59 473 53 l 448 16 q 517 12 490 12 q 630 45 587 12 q 674 125 674 79 q 652 181 674 157 q 583 215 629 205 l 583 269 l 494 269 z "},"":{"ha":1006,"x_min":7,"x_max":1006,"o":"m 510 3 q 284 57 413 0 q 81 227 155 113 q 7 504 7 340 q 51 710 7 619 q 174 860 96 800 q 355 950 253 920 q 572 979 457 979 l 841 979 l 1006 979 l 1006 688 l 700 688 q 547 682 597 688 q 459 661 498 675 q 391 612 420 647 q 356 487 361 576 q 391 363 359 400 q 467 313 422 326 q 559 296 511 301 q 700 292 606 292 l 1006 292 l 1006 0 l 650 0 l 510 3 m 574 271 l 574 155 q 593 156 586 156 q 635 142 618 156 q 652 111 652 129 q 636 68 652 83 q 578 53 621 53 q 534 60 553 54 l 528 17 q 597 13 570 13 q 710 47 667 13 q 754 126 754 81 q 732 182 754 159 q 663 216 709 206 l 663 271 l 574 271 z "},"":{"ha":922,"x_min":41,"x_max":963,"o":"m 41 0 l 41 979 l 880 979 l 880 688 l 359 688 l 359 575 l 696 575 l 696 404 l 359 404 l 359 292 l 963 292 l 963 0 l 41 0 m 138 1218 l 451 1218 l 570 1002 l 138 1218 z "},"":{"ha":922,"x_min":41,"x_max":963,"o":"m 41 0 l 41 979 l 880 979 l 880 688 l 359 688 l 359 575 l 696 575 l 696 404 l 359 404 l 359 292 l 963 292 l 963 0 l 41 0 m 138 1218 l 451 1218 l 570 1002 l 138 1218 z "},"":{"ha":922,"x_min":41,"x_max":963,"o":"m 41 0 l 41 979 l 880 979 l 880 688 l 359 688 l 359 575 l 696 575 l 696 404 l 359 404 l 359 292 l 963 292 l 963 0 l 41 0 m 456 1002 l 576 1218 l 889 1218 l 456 1002 z "},"":{"ha":922,"x_min":41,"x_max":963,"o":"m 41 0 l 41 979 l 880 979 l 880 688 l 359 688 l 359 575 l 696 575 l 696 404 l 359 404 l 359 292 l 963 292 l 963 0 l 41 0 m 456 1002 l 576 1218 l 889 1218 l 456 1002 z "},"":{"ha":922,"x_min":41,"x_max":963,"o":"m 41 0 l 41 979 l 880 979 l 880 688 l 359 688 l 359 575 l 696 575 l 696 404 l 359 404 l 359 292 l 963 292 l 963 0 l 41 0 m 699 998 l 511 1116 l 321 1000 l 321 1040 l 509 1232 l 699 1040 l 699 998 z "},"":{"ha":922,"x_min":41,"x_max":963,"o":"m 41 0 l 41 979 l 880 979 l 880 688 l 359 688 l 359 575 l 696 575 l 696 404 l 359 404 l 359 292 l 963 292 l 963 0 l 41 0 m 699 998 l 511 1116 l 321 1000 l 321 1040 l 509 1232 l 699 1040 l 699 998 z "},"":{"ha":922,"x_min":41,"x_max":963,"o":"m 41 0 l 41 979 l 880 979 l 880 688 l 359 688 l 359 575 l 696 575 l 696 404 l 359 404 l 359 292 l 963 292 l 963 0 l 41 0 m 382 1196 q 438 1174 416 1196 q 460 1117 460 1151 q 434 1055 457 1076 q 378 1034 412 1034 q 323 1056 345 1034 q 300 1112 300 1078 q 323 1173 300 1150 q 382 1196 345 1196 m 638 1196 q 695 1174 673 1196 q 717 1117 717 1151 q 691 1055 713 1076 q 634 1034 668 1034 q 579 1056 602 1034 q 557 1112 557 1078 q 579 1173 557 1150 q 638 1196 602 1196 z "},"":{"ha":922,"x_min":41,"x_max":963,"o":"m 41 0 l 41 979 l 880 979 l 880 688 l 359 688 l 359 575 l 696 575 l 696 404 l 359 404 l 359 292 l 963 292 l 963 0 l 41 0 m 382 1196 q 438 1174 416 1196 q 460 1117 460 1151 q 434 1055 457 1076 q 378 1034 412 1034 q 323 1056 345 1034 q 300 1112 300 1078 q 323 1173 300 1150 q 382 1196 345 1196 m 638 1196 q 695 1174 673 1196 q 717 1117 717 1151 q 691 1055 713 1076 q 634 1034 668 1034 q 579 1056 602 1034 q 557 1112 557 1078 q 579 1173 557 1150 q 638 1196 602 1196 z "},"":{"ha":373,"x_min":18,"x_max":346,"o":"m 27 979 l 346 979 l 346 0 l 27 0 l 27 979 m 18 1218 l 269 1218 l 346 1004 l 18 1218 z "},"":{"ha":373,"x_min":18,"x_max":346,"o":"m 27 979 l 346 979 l 346 0 l 27 0 l 27 979 m 18 1218 l 269 1218 l 346 1004 l 18 1218 z "},"":{"ha":373,"x_min":28,"x_max":354,"o":"m 345 0 l 28 0 l 28 979 l 345 979 l 345 0 m 28 1004 l 104 1218 l 354 1218 l 28 1004 z "},"":{"ha":373,"x_min":28,"x_max":354,"o":"m 345 0 l 28 0 l 28 979 l 345 979 l 345 0 m 28 1004 l 104 1218 l 354 1218 l 28 1004 z "},"":{"ha":373,"x_min":27,"x_max":346,"o":"m 27 979 l 346 979 l 346 0 l 27 0 l 27 979 m 340 1002 l 186 1120 l 31 1004 l 31 1044 l 185 1236 l 340 1044 l 340 1002 z "},"":{"ha":373,"x_min":27,"x_max":346,"o":"m 27 979 l 346 979 l 346 0 l 27 0 l 27 979 m 340 1002 l 186 1120 l 31 1004 l 31 1044 l 185 1236 l 340 1044 l 340 1002 z "},"":{"ha":373,"x_min":2,"x_max":374,"o":"m 27 979 l 346 979 l 346 0 l 27 0 l 27 979 m 83 1196 q 140 1174 118 1196 q 162 1117 162 1151 q 136 1055 159 1076 q 79 1034 113 1034 q 24 1056 47 1034 q 2 1112 2 1078 q 24 1173 2 1150 q 83 1196 47 1196 m 295 1196 q 352 1174 330 1196 q 374 1117 374 1151 q 348 1055 370 1076 q 291 1034 325 1034 q 236 1056 258 1034 q 214 1112 214 1078 q 236 1173 214 1150 q 295 1196 258 1196 z "},"":{"ha":373,"x_min":2,"x_max":374,"o":"m 27 979 l 346 979 l 346 0 l 27 0 l 27 979 m 83 1196 q 140 1174 118 1196 q 162 1117 162 1151 q 136 1055 159 1076 q 79 1034 113 1034 q 24 1056 47 1034 q 2 1112 2 1078 q 24 1173 2 1150 q 83 1196 47 1196 m 295 1196 q 352 1174 330 1196 q 374 1117 374 1151 q 348 1055 370 1076 q 291 1034 325 1034 q 236 1056 258 1034 q 214 1112 214 1078 q 236 1173 214 1150 q 295 1196 258 1196 z "},"":{"ha":1223,"x_min":-28,"x_max":1223,"o":"m 144 0 l 144 368 l -28 368 l -28 538 l 144 538 l 144 979 l 722 979 q 928 948 839 979 q 1080 864 1018 917 q 1182 721 1141 811 q 1223 486 1223 631 q 1179 259 1216 353 q 1080 111 1141 165 q 929 27 1018 57 q 705 0 840 -3 l 144 0 m 471 736 l 471 540 l 661 540 l 661 368 l 471 368 l 471 244 l 657 244 q 759 271 720 244 q 822 339 798 298 q 853 490 846 381 q 826 636 851 589 q 760 710 800 683 q 656 736 720 736 l 471 736 z "},"":{"ha":1223,"x_min":-28,"x_max":1223,"o":"m 144 0 l 144 368 l -28 368 l -28 538 l 144 538 l 144 979 l 722 979 q 928 948 839 979 q 1080 864 1018 917 q 1182 721 1141 811 q 1223 486 1223 631 q 1179 259 1216 353 q 1080 111 1141 165 q 929 27 1018 57 q 705 0 840 -3 l 144 0 m 471 736 l 471 540 l 661 540 l 661 368 l 471 368 l 471 244 l 657 244 q 759 271 720 244 q 822 339 798 298 q 853 490 846 381 q 826 636 851 589 q 760 710 800 683 q 656 736 720 736 l 471 736 z "},"":{"ha":970,"x_min":41,"x_max":970,"o":"m 41 0 l 41 979 l 359 979 l 651 613 l 651 979 l 970 979 l 970 0 l 651 0 l 359 366 l 359 0 l 41 0 m 754 1109 q 477 1076 591 952 q 306 1086 363 1199 l 265 1118 q 484 1171 365 1301 q 703 1137 602 1042 l 754 1109 z "},"":{"ha":970,"x_min":41,"x_max":970,"o":"m 41 0 l 41 979 l 359 979 l 651 613 l 651 979 l 970 979 l 970 0 l 651 0 l 359 366 l 359 0 l 41 0 m 754 1109 q 477 1076 591 952 q 306 1086 363 1199 l 265 1118 q 484 1171 365 1301 q 703 1137 602 1042 l 754 1109 z "},"":{"ha":1137,"x_min":7,"x_max":1131,"o":"m 1131 484 q 1064 210 1131 323 q 870 40 997 97 q 566 -17 743 -17 q 263 40 390 -17 q 72 210 137 98 q 7 484 7 322 q 44 700 7 607 q 153 857 81 793 q 330 954 225 921 q 566 987 434 987 q 869 929 742 987 q 1064 758 997 871 q 1131 484 1131 645 m 138 1218 l 451 1218 l 570 1002 l 138 1218 m 355 481 q 397 317 355 387 q 564 248 439 248 q 708 284 661 248 q 768 368 756 321 q 784 481 780 415 q 739 646 780 576 q 564 716 697 716 q 355 481 355 716 z "},"":{"ha":1137,"x_min":7,"x_max":1131,"o":"m 1131 484 q 1064 210 1131 323 q 870 40 997 97 q 566 -17 743 -17 q 263 40 390 -17 q 72 210 137 98 q 7 484 7 322 q 44 700 7 607 q 153 857 81 793 q 330 954 225 921 q 566 987 434 987 q 869 929 742 987 q 1064 758 997 871 q 1131 484 1131 645 m 138 1218 l 451 1218 l 570 1002 l 138 1218 m 355 481 q 397 317 355 387 q 564 248 439 248 q 708 284 661 248 q 768 368 756 321 q 784 481 780 415 q 739 646 780 576 q 564 716 697 716 q 355 481 355 716 z "},"":{"ha":1137,"x_min":7,"x_max":1131,"o":"m 1131 484 q 1064 210 1131 323 q 870 40 997 97 q 566 -17 743 -17 q 263 40 390 -17 q 72 210 137 98 q 7 484 7 322 q 44 700 7 607 q 153 857 81 793 q 330 954 225 921 q 566 987 434 987 q 869 929 742 987 q 1064 758 997 871 q 1131 484 1131 645 m 456 1002 l 576 1218 l 889 1218 l 456 1002 m 355 481 q 397 317 355 387 q 564 248 439 248 q 708 284 661 248 q 768 368 756 321 q 784 481 780 415 q 739 646 780 576 q 564 716 697 716 q 355 481 355 716 z "},"":{"ha":1137,"x_min":7,"x_max":1131,"o":"m 1131 484 q 1064 210 1131 323 q 870 40 997 97 q 566 -17 743 -17 q 263 40 390 -17 q 72 210 137 98 q 7 484 7 322 q 44 700 7 607 q 153 857 81 793 q 330 954 225 921 q 566 987 434 987 q 869 929 742 987 q 1064 758 997 871 q 1131 484 1131 645 m 456 1002 l 576 1218 l 889 1218 l 456 1002 m 355 481 q 397 317 355 387 q 564 248 439 248 q 708 284 661 248 q 768 368 756 321 q 784 481 780 415 q 739 646 780 576 q 564 716 697 716 q 355 481 355 716 z "},"":{"ha":1137,"x_min":7,"x_max":1131,"o":"m 1131 484 q 1064 210 1131 323 q 870 40 997 97 q 566 -17 743 -17 q 263 40 390 -17 q 72 210 137 98 q 7 484 7 322 q 44 700 7 607 q 153 857 81 793 q 330 954 225 921 q 566 987 434 987 q 869 929 742 987 q 1064 758 997 871 q 1131 484 1131 645 m 755 998 l 561 1124 l 364 1001 l 364 1043 l 559 1246 l 755 1043 l 755 998 m 355 481 q 397 317 355 387 q 564 248 439 248 q 708 284 661 248 q 768 368 756 321 q 784 481 780 415 q 739 646 780 576 q 564 716 697 716 q 355 481 355 716 z "},"":{"ha":1137,"x_min":7,"x_max":1131,"o":"m 1131 484 q 1064 210 1131 323 q 870 40 997 97 q 566 -17 743 -17 q 263 40 390 -17 q 72 210 137 98 q 7 484 7 322 q 44 700 7 607 q 153 857 81 793 q 330 954 225 921 q 566 987 434 987 q 869 929 742 987 q 1064 758 997 871 q 1131 484 1131 645 m 755 998 l 561 1124 l 364 1001 l 364 1043 l 559 1246 l 755 1043 l 755 998 m 355 481 q 397 317 355 387 q 564 248 439 248 q 708 284 661 248 q 768 368 756 321 q 784 481 780 415 q 739 646 780 576 q 564 716 697 716 q 355 481 355 716 z "},"":{"ha":1137,"x_min":7,"x_max":1131,"o":"m 1131 484 q 1064 210 1131 323 q 870 40 997 97 q 566 -17 743 -17 q 263 40 390 -17 q 72 210 137 98 q 7 484 7 322 q 44 700 7 607 q 153 857 81 793 q 330 954 225 921 q 566 987 434 987 q 869 929 742 987 q 1064 758 997 871 q 1131 484 1131 645 m 814 1112 q 537 1078 651 955 q 366 1088 423 1202 l 325 1120 q 543 1174 425 1303 q 762 1139 662 1044 l 814 1112 m 355 481 q 397 317 355 387 q 564 248 439 248 q 708 284 661 248 q 768 368 756 321 q 784 481 780 415 q 739 646 780 576 q 564 716 697 716 q 355 481 355 716 z "},"":{"ha":1137,"x_min":7,"x_max":1131,"o":"m 1131 484 q 1064 210 1131 323 q 870 40 997 97 q 566 -17 743 -17 q 263 40 390 -17 q 72 210 137 98 q 7 484 7 322 q 44 700 7 607 q 153 857 81 793 q 330 954 225 921 q 566 987 434 987 q 869 929 742 987 q 1064 758 997 871 q 1131 484 1131 645 m 814 1112 q 537 1078 651 955 q 366 1088 423 1202 l 325 1120 q 543 1174 425 1303 q 762 1139 662 1044 l 814 1112 m 355 481 q 397 317 355 387 q 564 248 439 248 q 708 284 661 248 q 768 368 756 321 q 784 481 780 415 q 739 646 780 576 q 564 716 697 716 q 355 481 355 716 z "},"":{"ha":1137,"x_min":7,"x_max":1131,"o":"m 1131 484 q 1064 210 1131 323 q 870 40 997 97 q 566 -17 743 -17 q 263 40 390 -17 q 72 210 137 98 q 7 484 7 322 q 44 700 7 607 q 153 857 81 793 q 330 954 225 921 q 566 987 434 987 q 869 929 742 987 q 1064 758 997 871 q 1131 484 1131 645 m 762 1196 q 818 1174 796 1196 q 840 1117 840 1151 q 814 1055 837 1076 q 758 1034 791 1034 q 703 1056 725 1034 q 680 1112 680 1078 q 703 1173 680 1150 q 762 1196 725 1196 m 382 1196 q 438 1174 416 1196 q 460 1117 460 1151 q 434 1055 457 1076 q 378 1034 412 1034 q 323 1056 345 1034 q 300 1112 300 1078 q 323 1173 300 1150 q 382 1196 345 1196 m 355 481 q 397 317 355 387 q 564 248 439 248 q 708 284 661 248 q 768 368 756 321 q 784 481 780 415 q 739 646 780 576 q 564 716 697 716 q 355 481 355 716 z "},"":{"ha":1137,"x_min":7,"x_max":1131,"o":"m 1131 484 q 1064 210 1131 323 q 870 40 997 97 q 566 -17 743 -17 q 263 40 390 -17 q 72 210 137 98 q 7 484 7 322 q 44 700 7 607 q 153 857 81 793 q 330 954 225 921 q 566 987 434 987 q 869 929 742 987 q 1064 758 997 871 q 1131 484 1131 645 m 762 1196 q 818 1174 796 1196 q 840 1117 840 1151 q 814 1055 837 1076 q 758 1034 791 1034 q 703 1056 725 1034 q 680 1112 680 1078 q 703 1173 680 1150 q 762 1196 725 1196 m 382 1196 q 438 1174 416 1196 q 460 1117 460 1151 q 434 1055 457 1076 q 378 1034 412 1034 q 323 1056 345 1034 q 300 1112 300 1078 q 323 1173 300 1150 q 382 1196 345 1196 m 355 481 q 397 317 355 387 q 564 248 439 248 q 708 284 661 248 q 768 368 756 321 q 784 481 780 415 q 739 646 780 576 q 564 716 697 716 q 355 481 355 716 z "},"":{"ha":1137,"x_min":1,"x_max":1131,"o":"m 434 285 q 562 250 437 252 q 723 301 662 250 q 787 467 784 353 l 787 551 l 434 285 m 981 864 l 1055 924 l 1131 822 l 1072 769 q 1131 484 1131 645 q 1064 210 1131 323 q 870 40 997 97 q 566 -17 743 -17 q 190 84 390 -17 l 76 -5 l 1 95 l 92 168 q 7 484 7 322 q 44 700 7 607 q 153 857 81 793 q 330 954 225 921 q 566 987 434 987 q 844 938 742 987 q 981 864 947 890 m 716 659 q 567 716 716 711 q 359 479 350 716 q 363 388 355 434 l 716 659 z "},"":{"ha":1137,"x_min":1,"x_max":1131,"o":"m 434 285 q 562 250 437 252 q 723 301 662 250 q 787 467 784 353 l 787 551 l 434 285 m 981 864 l 1055 924 l 1131 822 l 1072 769 q 1131 484 1131 645 q 1064 210 1131 323 q 870 40 997 97 q 566 -17 743 -17 q 190 84 390 -17 l 76 -5 l 1 95 l 92 168 q 7 484 7 322 q 44 700 7 607 q 153 857 81 793 q 330 954 225 921 q 566 987 434 987 q 844 938 742 987 q 981 864 947 890 m 716 659 q 567 716 716 711 q 359 479 350 716 q 363 388 355 434 l 716 659 z "},"":{"ha":986,"x_min":7,"x_max":979,"o":"m 326 979 l 326 400 q 363 262 321 301 q 495 221 406 224 q 615 263 567 222 q 661 400 663 304 l 661 979 l 979 979 l 979 405 q 939 210 977 283 q 842 88 901 137 q 695 12 783 39 q 498 -18 606 -15 q 314 7 408 -16 q 152 79 221 30 q 44 204 82 127 q 7 404 7 281 l 7 979 l 326 979 m 138 1218 l 451 1218 l 570 1002 l 138 1218 z "},"":{"ha":986,"x_min":7,"x_max":979,"o":"m 326 979 l 326 400 q 363 262 321 301 q 495 221 406 224 q 615 263 567 222 q 661 400 663 304 l 661 979 l 979 979 l 979 405 q 939 210 977 283 q 842 88 901 137 q 695 12 783 39 q 498 -18 606 -15 q 314 7 408 -16 q 152 79 221 30 q 44 204 82 127 q 7 404 7 281 l 7 979 l 326 979 m 138 1218 l 451 1218 l 570 1002 l 138 1218 z "},"":{"ha":986,"x_min":7,"x_max":979,"o":"m 326 979 l 326 400 q 363 262 321 301 q 495 221 406 224 q 615 263 567 222 q 661 400 663 304 l 661 979 l 979 979 l 979 405 q 939 210 977 283 q 842 88 901 137 q 695 12 783 39 q 498 -18 606 -15 q 314 7 408 -16 q 152 79 221 30 q 44 204 82 127 q 7 404 7 281 l 7 979 l 326 979 m 456 1002 l 576 1218 l 889 1218 l 456 1002 z "},"":{"ha":986,"x_min":7,"x_max":979,"o":"m 326 979 l 326 400 q 363 262 321 301 q 495 221 406 224 q 615 263 567 222 q 661 400 663 304 l 661 979 l 979 979 l 979 405 q 939 210 977 283 q 842 88 901 137 q 695 12 783 39 q 498 -18 606 -15 q 314 7 408 -16 q 152 79 221 30 q 44 204 82 127 q 7 404 7 281 l 7 979 l 326 979 m 456 1002 l 576 1218 l 889 1218 l 456 1002 z "},"":{"ha":986,"x_min":7,"x_max":979,"o":"m 326 979 l 326 400 q 363 262 321 301 q 495 221 406 224 q 615 263 567 222 q 661 400 663 304 l 661 979 l 979 979 l 979 405 q 939 210 977 283 q 842 88 901 137 q 695 12 783 39 q 498 -18 606 -15 q 314 7 408 -16 q 152 79 221 30 q 44 204 82 127 q 7 404 7 281 l 7 979 l 326 979 m 699 998 l 504 1124 l 307 1001 l 307 1043 l 502 1246 l 699 1043 l 699 998 z "},"":{"ha":986,"x_min":7,"x_max":979,"o":"m 326 979 l 326 400 q 363 262 321 301 q 495 221 406 224 q 615 263 567 222 q 661 400 663 304 l 661 979 l 979 979 l 979 405 q 939 210 977 283 q 842 88 901 137 q 695 12 783 39 q 498 -18 606 -15 q 314 7 408 -16 q 152 79 221 30 q 44 204 82 127 q 7 404 7 281 l 7 979 l 326 979 m 699 998 l 504 1124 l 307 1001 l 307 1043 l 502 1246 l 699 1043 l 699 998 z "},"":{"ha":986,"x_min":7,"x_max":979,"o":"m 326 979 l 326 400 q 363 262 321 301 q 495 221 406 224 q 615 263 567 222 q 661 400 663 304 l 661 979 l 979 979 l 979 405 q 939 210 977 283 q 842 88 901 137 q 695 12 783 39 q 498 -18 606 -15 q 314 7 408 -16 q 152 79 221 30 q 44 204 82 127 q 7 404 7 281 l 7 979 l 326 979 m 642 1199 q 699 1176 677 1199 q 721 1120 721 1154 q 695 1057 718 1078 q 638 1036 672 1036 q 583 1059 606 1036 q 561 1115 561 1081 q 583 1176 561 1153 q 642 1199 606 1199 m 338 1196 q 395 1174 373 1196 q 417 1117 417 1151 q 391 1055 414 1076 q 334 1034 368 1034 q 279 1056 302 1034 q 257 1112 257 1078 q 279 1173 257 1150 q 338 1196 302 1196 z "},"":{"ha":986,"x_min":7,"x_max":979,"o":"m 326 979 l 326 400 q 363 262 321 301 q 495 221 406 224 q 615 263 567 222 q 661 400 663 304 l 661 979 l 979 979 l 979 405 q 939 210 977 283 q 842 88 901 137 q 695 12 783 39 q 498 -18 606 -15 q 314 7 408 -16 q 152 79 221 30 q 44 204 82 127 q 7 404 7 281 l 7 979 l 326 979 m 642 1199 q 699 1176 677 1199 q 721 1120 721 1154 q 695 1057 718 1078 q 638 1036 672 1036 q 583 1059 606 1036 q 561 1115 561 1081 q 583 1176 561 1153 q 642 1199 606 1199 m 338 1196 q 395 1174 373 1196 q 417 1117 417 1151 q 391 1055 414 1076 q 334 1034 368 1034 q 279 1056 302 1034 q 257 1112 257 1078 q 279 1173 257 1150 q 338 1196 302 1196 z "},"":{"ha":998,"x_min":-88,"x_max":1086,"o":"m 1086 979 l 659 359 l 659 0 l 339 0 l 339 359 l -88 979 l 298 979 l 498 677 l 700 979 l 1086 979 m 421 1002 l 541 1218 l 854 1218 l 421 1002 z "},"":{"ha":998,"x_min":-88,"x_max":1086,"o":"m 1086 979 l 659 359 l 659 0 l 339 0 l 339 359 l -88 979 l 298 979 l 498 677 l 700 979 l 1086 979 m 421 1002 l 541 1218 l 854 1218 l 421 1002 z "},"":{"ha":935,"x_min":27,"x_max":930,"o":"m 346 184 l 346 0 l 27 0 l 27 979 l 346 979 l 346 808 q 690 789 617 808 q 813 735 763 769 q 897 644 863 701 q 930 494 930 587 q 894 349 924 409 q 813 255 863 290 q 690 201 763 220 q 509 184 618 182 l 346 184 m 346 616 l 346 359 l 496 359 q 579 373 547 359 q 630 409 610 387 q 656 488 650 431 q 634 564 654 539 q 580 602 613 589 q 495 616 547 616 l 346 616 z "},"":{"ha":935,"x_min":27,"x_max":930,"o":"m 346 184 l 346 0 l 27 0 l 27 979 l 346 979 l 346 808 q 690 789 617 808 q 813 735 763 769 q 897 644 863 701 q 930 494 930 587 q 894 349 924 409 q 813 255 863 290 q 690 201 763 220 q 509 184 618 182 l 346 184 m 346 616 l 346 359 l 496 359 q 579 373 547 359 q 630 409 610 387 q 656 488 650 431 q 634 564 654 539 q 580 602 613 589 q 495 616 547 616 l 346 616 z "},"":{"ha":779,"x_min":41,"x_max":763,"o":"m 271 488 l 271 -16 l 41 -16 l 41 979 l 496 979 q 664 935 607 979 q 734 787 722 890 q 705 660 738 705 q 597 585 673 614 l 597 583 q 666 560 635 578 q 718 516 696 542 q 751 460 739 491 q 763 399 763 429 q 722 255 763 304 q 617 191 682 205 q 463 176 553 176 l 330 176 l 330 340 l 420 340 q 487 359 458 338 q 515 412 515 381 q 492 468 519 448 q 420 488 466 488 l 311 488 l 311 664 l 433 664 q 462 681 447 664 q 477 726 477 697 q 459 773 475 760 q 433 787 444 787 l 271 787 l 271 488 z "},"":{"ha":998,"x_min":-88,"x_max":1086,"o":"m 1086 979 l 659 359 l 659 0 l 339 0 l 339 359 l -88 979 l 298 979 l 498 677 l 700 979 l 1086 979 m 338 1196 q 395 1174 373 1196 q 417 1117 417 1151 q 391 1055 414 1076 q 334 1034 368 1034 q 279 1056 302 1034 q 257 1112 257 1078 q 279 1173 257 1150 q 338 1196 302 1196 m 642 1199 q 699 1176 677 1199 q 721 1120 721 1154 q 695 1057 718 1078 q 638 1036 672 1036 q 583 1059 606 1036 q 561 1115 561 1081 q 583 1176 561 1153 q 642 1199 606 1199 z "},"":{"ha":1398,"x_min":11,"x_max":1439,"o":"m 513 0 q 269 58 393 -5 q 79 224 144 122 q 16 486 14 326 q 52 696 11 608 q 163 848 92 784 q 334 944 233 911 q 564 979 434 977 l 1356 979 l 1356 688 l 836 688 l 836 575 l 1172 575 l 1172 404 l 836 404 l 836 292 l 1439 292 l 1439 0 l 513 0 m 355 481 q 397 317 355 387 q 564 248 439 248 l 564 716 q 355 481 355 716 z "},"":{"ha":1398,"x_min":11,"x_max":1439,"o":"m 513 0 q 269 58 393 -5 q 79 224 144 122 q 16 486 14 326 q 52 696 11 608 q 163 848 92 784 q 334 944 233 911 q 564 979 434 977 l 1356 979 l 1356 688 l 836 688 l 836 575 l 1172 575 l 1172 404 l 836 404 l 836 292 l 1439 292 l 1439 0 l 513 0 m 355 481 q 397 317 355 387 q 564 248 439 248 l 564 716 q 355 481 355 716 z "},"":{"ha":770,"x_min":0,"x_max":811,"o":"m 811 979 l 277 979 q 54 798 90 979 q 255 399 19 616 q 206 292 398 286 l 0 292 l 0 0 l 521 0 q 736 217 732 35 q 521 591 741 399 q 572 688 398 693 l 811 688 l 811 979 m 625 1237 l 429 989 l 234 1237 l 234 1289 l 431 1139 l 625 1291 l 625 1237 z "},"":{"ha":770,"x_min":0,"x_max":811,"o":"m 811 979 l 277 979 q 54 798 90 979 q 255 399 19 616 q 206 292 398 286 l 0 292 l 0 0 l 521 0 q 736 217 732 35 q 521 591 741 399 q 572 688 398 693 l 811 688 l 811 979 m 625 1237 l 429 989 l 234 1237 l 234 1289 l 431 1139 l 625 1291 l 625 1237 z "},"":{"ha":998,"x_min":-88,"x_max":1086,"o":"m 1086 979 l 659 359 l 659 0 l 339 0 l 339 359 l -88 979 l 298 979 l 498 677 l 700 979 l 1086 979 m 338 1196 q 395 1174 373 1196 q 417 1117 417 1151 q 391 1055 414 1076 q 334 1034 368 1034 q 279 1056 302 1034 q 257 1112 257 1078 q 279 1173 257 1150 q 338 1196 302 1196 m 642 1199 q 699 1176 677 1199 q 721 1120 721 1154 q 695 1057 718 1078 q 638 1036 672 1036 q 583 1059 606 1036 q 561 1115 561 1081 q 583 1176 561 1153 q 642 1199 606 1199 z "},"":{"ha":949,"x_min":27,"x_max":922,"o":"m 27 979 l 922 979 l 922 688 l 448 292 l 922 292 l 922 0 l 27 0 l 27 292 l 501 688 l 27 688 l 27 979 m 625 1237 l 429 989 l 234 1237 l 234 1289 l 431 1139 l 625 1291 l 625 1237 z "},"":{"ha":949,"x_min":27,"x_max":922,"o":"m 27 979 l 922 979 l 922 688 l 448 292 l 922 292 l 922 0 l 27 0 l 27 292 l 501 688 l 27 688 l 27 979 m 625 1237 l 429 989 l 234 1237 l 234 1289 l 431 1139 l 625 1291 l 625 1237 z "},"":{"ha":798,"x_min":57,"x_max":741,"o":"m 315 633 l 593 633 q 562 485 588 536 q 501 408 535 433 q 437 359 467 382 q 408 301 408 336 q 443 255 408 266 q 545 244 478 244 q 647 258 591 244 q 741 290 702 272 l 741 51 q 590 13 661 26 q 438 0 520 0 q 269 19 355 0 q 119 92 182 39 q 57 236 57 144 q 90 353 57 307 q 190 454 123 399 q 286 543 256 508 q 315 633 315 578 m 606 734 l 303 734 l 303 996 l 606 996 l 606 734 z "}}}
